<svg version="1.1" xmlns="http://www.w3.org/2000/svg" viewBox="0 0 1037.6118078733646 752.0144665909838" width="1037.6118078733646" height="752.0144665909838">
  <!-- svg-source:excalidraw -->
  
  <defs>
    <style class="style-fonts">
      
    </style>
    
  </defs>
  <rect x="0" y="0" width="1037.6118078733646" height="752.0144665909838" fill="#ffffff"></rect><g transform="translate(228.4308861272982 117.2562691890862) rotate(0 2.7303860765912304 60.848603992604694)" stroke="none"><path fill="#e03131" d="M 3.71,-0.96 Q 3.71,-0.96 5.13,5.13 6.54,11.23 7.14,19.49 7.73,27.75 7.93,41.10 8.13,54.45 7.52,67.80 6.90,81.16 5.94,89.36 4.97,97.55 4.56,103.40 4.15,109.24 4.16,112.41 4.17,115.59 5.50,116.70 6.83,117.81 7.41,118.13 8.00,118.45 8.45,118.94 8.90,119.43 9.17,120.04 9.44,120.65 9.50,121.31 9.56,121.98 9.41,122.62 9.26,123.27 8.90,123.84 8.55,124.40 8.04,124.83 7.52,125.25 6.90,125.49 6.28,125.72 5.61,125.75 4.95,125.78 4.31,125.59 3.67,125.40 3.13,125.02 2.58,124.64 2.19,124.10 1.79,123.56 1.59,122.93 1.39,122.30 1.40,121.63 1.41,120.97 1.63,120.34 1.85,119.71 2.26,119.19 2.67,118.66 3.23,118.30 3.78,117.93 4.43,117.76 5.07,117.59 5.74,117.64 6.40,117.69 7.02,117.94 7.63,118.20 8.13,118.64 8.63,119.08 8.97,119.65 9.30,120.23 9.43,120.88 9.57,121.53 9.49,122.19 9.40,122.85 9.12,123.45 8.83,124.05 8.36,124.53 7.90,125.01 7.30,125.31 6.71,125.61 6.05,125.71 5.39,125.81 4.74,125.69 4.08,125.57 4.08,125.57 4.08,125.57 1.48,124.09 -1.12,122.61 -1.62,118.94 -2.13,115.26 -1.79,112.07 -1.45,108.87 -1.09,102.89 -0.73,96.91 0.11,88.91 0.97,80.91 1.45,67.75 1.94,54.58 1.57,41.44 1.21,28.29 0.47,20.64 -0.26,12.98 -1.99,6.97 -3.71,0.96 -3.77,0.50 -3.84,0.04 -3.78,-0.41 -3.73,-0.87 -3.58,-1.30 -3.42,-1.74 -3.16,-2.12 -2.90,-2.51 -2.56,-2.82 -2.21,-3.13 -1.81,-3.35 -1.40,-3.57 -0.95,-3.69 -0.50,-3.80 -0.04,-3.81 0.41,-3.81 0.86,-3.71 1.31,-3.60 1.73,-3.39 2.14,-3.18 2.49,-2.88 2.84,-2.58 3.11,-2.20 3.37,-1.82 3.54,-1.39 3.71,-0.96 3.71,-0.96 L 3.71,-0.96 Z"></path></g><g transform="translate(279.1380561211354 161.7225567221435) rotate(0 7.411047922176181 56.55799730081844)" stroke="none"><path fill="#e03131" d="M 3.66,-0.96 Q 3.66,-0.96 4.63,3.33 5.60,7.63 7.12,17.24 8.64,26.85 9.47,35.45 10.30,44.06 11.96,55.69 13.62,67.32 14.54,75.02 15.46,82.71 15.85,89.42 16.23,96.13 16.71,99.77 17.19,103.41 17.83,108.19 18.47,112.98 18.40,113.56 18.32,114.15 18.06,114.68 17.81,115.22 17.39,115.64 16.98,116.06 16.45,116.33 15.92,116.60 15.34,116.68 14.75,116.77 14.17,116.66 13.59,116.55 13.07,116.27 12.55,115.98 12.15,115.55 11.76,115.11 11.52,114.57 11.28,114.03 11.22,113.44 11.17,112.85 11.31,112.27 11.45,111.70 11.76,111.20 12.07,110.70 12.53,110.32 12.99,109.95 13.54,109.74 14.09,109.53 14.69,109.51 15.28,109.48 15.84,109.65 16.41,109.82 16.89,110.16 17.38,110.50 17.73,110.98 18.08,111.46 18.26,112.02 18.43,112.58 18.42,113.18 18.41,113.77 18.21,114.32 18.02,114.88 17.65,115.35 17.28,115.81 16.79,116.13 16.29,116.46 15.72,116.60 15.15,116.75 14.56,116.71 13.97,116.67 13.42,116.44 12.88,116.21 12.43,115.82 11.99,115.43 11.69,114.92 11.40,114.40 11.28,113.82 11.16,113.24 11.16,113.24 11.16,113.24 11.21,108.64 11.27,104.04 10.95,100.26 10.64,96.48 10.21,89.95 9.78,83.42 8.78,75.81 7.78,68.19 5.98,56.45 4.18,44.71 3.21,36.32 2.23,27.93 0.55,18.67 -1.12,9.40 -2.39,5.18 -3.66,0.96 -3.72,0.51 -3.79,0.05 -3.74,-0.39 -3.69,-0.84 -3.54,-1.27 -3.38,-1.70 -3.13,-2.08 -2.87,-2.46 -2.53,-2.77 -2.20,-3.08 -1.80,-3.30 -1.39,-3.52 -0.95,-3.64 -0.51,-3.75 -0.05,-3.76 0.39,-3.77 0.84,-3.66 1.28,-3.56 1.69,-3.35 2.10,-3.15 2.45,-2.85 2.79,-2.55 3.06,-2.18 3.32,-1.81 3.49,-1.38 3.66,-0.96 3.66,-0.96 L 3.66,-0.96 Z"></path></g><g transform="translate(161.34139967391388 331.7866037783974) rotate(0 58.89832822361075 11.311599460163734)" stroke="none"><path fill="#e03131" d="M 2.66,-2.28 Q 2.66,-2.28 6.58,2.48 10.50,7.25 14.68,9.66 18.85,12.07 27.37,14.24 35.90,16.40 46.85,17.37 57.81,18.34 65.43,18.78 73.05,19.21 82.06,19.19 91.07,19.16 97.99,18.71 104.92,18.26 108.49,17.73 112.06,17.20 114.73,16.68 117.40,16.16 117.95,16.19 118.49,16.21 119.00,16.41 119.50,16.61 119.92,16.96 120.34,17.30 120.62,17.77 120.90,18.23 121.02,18.76 121.14,19.29 121.09,19.83 121.04,20.37 120.81,20.87 120.59,21.36 120.21,21.76 119.84,22.16 119.37,22.42 118.89,22.67 118.35,22.77 117.82,22.86 117.28,22.77 116.74,22.69 116.26,22.44 115.78,22.19 115.40,21.79 115.02,21.40 114.79,20.91 114.56,20.42 114.50,19.88 114.44,19.34 114.55,18.81 114.66,18.28 114.94,17.81 115.22,17.34 115.63,16.99 116.04,16.63 116.54,16.43 117.05,16.22 117.59,16.19 118.13,16.16 118.66,16.30 119.18,16.44 119.63,16.74 120.08,17.04 120.42,17.47 120.75,17.90 120.93,18.42 121.10,18.93 121.11,19.47 121.11,20.02 120.94,20.53 120.77,21.05 120.44,21.49 120.12,21.92 119.67,22.23 119.22,22.54 118.70,22.69 118.18,22.83 118.18,22.83 118.18,22.83 115.46,22.94 112.74,23.05 109.01,23.37 105.28,23.69 98.19,24.18 91.10,24.67 81.93,24.74 72.76,24.82 65.04,24.44 57.31,24.06 45.88,23.11 34.45,22.16 25.13,19.81 15.81,17.45 10.73,14.52 5.64,11.58 1.48,6.93 -2.66,2.28 -2.89,1.92 -3.13,1.57 -3.27,1.18 -3.41,0.78 -3.46,0.36 -3.50,-0.05 -3.44,-0.47 -3.38,-0.89 -3.23,-1.28 -3.07,-1.67 -2.83,-2.02 -2.58,-2.36 -2.26,-2.64 -1.94,-2.91 -1.56,-3.10 -1.18,-3.29 -0.77,-3.39 -0.36,-3.48 0.05,-3.47 0.47,-3.47 0.88,-3.36 1.29,-3.25 1.66,-3.05 2.03,-2.85 2.35,-2.56 2.66,-2.28 2.66,-2.28 L 2.66,-2.28 Z"></path></g><g transform="translate(294.74026227308536 73.57009196362651) rotate(0 -53.8276112242271 229.35243043366336)" stroke="none"><path fill="#e03131" d="M 0.89,2.99 Q 0.89,2.99 -7.42,5.39 -15.74,7.79 -22.82,10.13 -29.90,12.46 -37.38,15.22 -44.85,17.98 -53.20,21.16 -61.55,24.35 -77.63,31.06 -93.71,37.78 -112.49,44.91 -131.26,52.05 -145.01,57.96 -158.75,63.88 -174.12,72.61 -189.50,81.34 -204.43,93.70 -219.36,106.05 -229.72,116.42 -240.08,126.79 -250.13,145.95 -260.18,165.11 -266.46,188.82 -272.75,212.52 -275.43,231.74 -278.11,250.95 -274.12,275.84 -270.12,300.74 -258.22,324.81 -246.32,348.87 -234.40,364.64 -222.49,380.40 -197.49,397.00 -172.49,413.60 -139.79,425.80 -107.09,438.00 -82.97,443.19 -58.84,448.38 -29.60,445.65 -0.37,442.93 27.14,432.66 54.65,422.38 71.28,414.01 87.91,405.64 104.19,391.70 120.47,377.75 132.88,359.22 145.29,340.69 152.58,325.26 159.87,309.83 164.03,285.58 168.19,261.33 169.76,233.76 171.33,206.20 170.88,186.90 170.43,167.61 166.68,147.23 162.92,126.85 158.64,110.12 154.36,93.38 151.21,82.94 148.06,72.49 141.05,61.86 134.03,51.22 123.16,42.36 112.29,33.49 102.82,28.17 93.35,22.84 80.06,18.60 66.78,14.37 55.05,11.43 43.33,8.49 34.60,6.29 25.88,4.10 25.49,3.93 25.10,3.77 24.78,3.48 24.47,3.20 24.26,2.83 24.05,2.46 23.97,2.04 23.89,1.62 23.95,1.20 24.01,0.78 24.20,0.40 24.39,0.02 24.69,-0.27 24.99,-0.57 25.37,-0.76 25.75,-0.95 26.18,-1.00 26.60,-1.06 27.01,-0.98 27.43,-0.90 27.80,-0.69 28.17,-0.48 28.45,-0.16 28.74,0.15 28.90,0.54 29.07,0.93 29.10,1.35 29.14,1.77 29.03,2.19 28.93,2.60 28.70,2.96 28.47,3.31 28.14,3.58 27.81,3.84 27.41,3.99 27.01,4.14 26.58,4.15 26.16,4.16 25.75,4.03 25.35,3.91 25.00,3.66 24.66,3.41 24.41,3.06 24.16,2.72 24.04,2.31 23.92,1.90 23.93,1.48 23.94,1.05 24.09,0.66 24.24,0.26 24.50,-0.06 24.77,-0.39 25.13,-0.62 25.49,-0.85 25.90,-0.95 26.31,-1.05 26.74,-1.02 27.16,-0.98 27.16,-0.98 27.16,-0.98 35.88,1.20 44.61,3.39 56.49,6.38 68.38,9.37 82.15,13.81 95.91,18.25 105.76,23.84 115.62,29.43 127.00,38.86 138.38,48.29 145.72,59.61 153.07,70.92 156.26,81.50 159.45,92.08 163.77,108.99 168.09,125.90 171.89,146.69 175.69,167.47 176.13,186.99 176.58,206.50 174.97,234.36 173.37,262.22 169.00,287.13 164.64,312.03 157.15,327.82 149.66,343.61 136.79,362.66 123.92,381.71 107.11,396.01 90.30,410.32 73.39,418.81 56.49,427.31 28.32,437.73 0.15,448.15 -29.86,450.83 -59.88,453.52 -84.40,448.22 -108.93,442.93 -142.15,430.46 -175.38,417.99 -201.00,400.81 -226.62,383.63 -238.82,367.42 -251.03,351.21 -263.17,326.42 -275.30,301.63 -279.32,275.96 -283.33,250.29 -280.59,230.73 -277.84,211.17 -271.35,186.92 -264.86,162.67 -254.36,142.89 -243.86,123.10 -233.30,112.53 -222.74,101.96 -207.44,89.34 -192.15,76.72 -176.51,67.84 -160.87,58.96 -147.03,52.98 -133.19,47.00 -114.50,39.88 -95.81,32.75 -79.67,25.97 -63.54,19.19 -55.18,15.95 -46.83,12.70 -39.29,9.84 -31.74,6.98 -24.59,4.52 -17.44,2.06 -9.16,-0.46 -0.89,-2.99 -0.51,-3.05 -0.14,-3.12 0.22,-3.09 0.60,-3.06 0.96,-2.94 1.31,-2.83 1.63,-2.63 1.95,-2.43 2.22,-2.16 2.48,-1.89 2.67,-1.56 2.86,-1.24 2.97,-0.88 3.08,-0.52 3.09,-0.14 3.11,0.22 3.04,0.59 2.97,0.96 2.81,1.31 2.65,1.65 2.41,1.94 2.17,2.23 1.88,2.46 1.58,2.69 1.23,2.84 0.89,2.99 0.89,2.99 L 0.89,2.99 Z"></path></g><g transform="translate(196.44636351580107 510.4318642182234) rotate(0 -0.39005515379881217 15.212150998151174)" stroke="none"><path fill="#e03131" d="M 4.97,0 Q 4.97,0 4.73,4.03 4.49,8.07 4.53,10.91 4.58,13.74 4.81,17.00 5.04,20.25 5.10,22.50 5.16,24.75 4.85,28.21 4.53,31.67 4.19,32.49 3.85,33.31 3.27,33.97 2.69,34.64 1.93,35.08 1.16,35.53 0.29,35.70 -0.56,35.88 -1.44,35.77 -2.32,35.66 -3.11,35.28 -3.91,34.90 -4.54,34.28 -5.18,33.66 -5.58,32.87 -5.98,32.09 -6.11,31.21 -6.24,30.34 -6.08,29.47 -5.93,28.60 -5.50,27.82 -5.08,27.05 -4.42,26.45 -3.77,25.85 -2.96,25.49 -2.16,25.13 -1.28,25.05 -0.40,24.97 0.45,25.17 1.32,25.37 2.07,25.84 2.82,26.31 3.38,26.99 3.94,27.67 4.26,28.50 4.57,29.33 4.60,30.21 4.64,31.09 4.39,31.94 4.14,32.79 3.63,33.51 3.12,34.24 2.41,34.76 1.70,35.29 0.86,35.56 0.02,35.83 -0.86,35.81 -1.74,35.80 -2.58,35.50 -3.41,35.21 -4.10,34.66 -4.80,34.12 -5.29,33.38 -5.77,32.64 -5.99,31.78 -6.22,30.93 -6.16,30.04 -6.09,29.16 -6.09,29.16 -6.09,29.16 -5.63,26.96 -5.16,24.75 -5.10,22.50 -5.04,20.25 -4.81,17.00 -4.58,13.74 -4.53,10.91 -4.49,8.07 -4.73,4.03 -4.97,0 -4.90,-0.59 -4.83,-1.19 -4.62,-1.75 -4.40,-2.31 -4.06,-2.80 -3.72,-3.30 -3.27,-3.70 -2.82,-4.09 -2.29,-4.37 -1.76,-4.65 -1.18,-4.79 -0.60,-4.94 0.00,-4.94 0.60,-4.94 1.18,-4.79 1.76,-4.65 2.29,-4.37 2.82,-4.09 3.27,-3.69 3.72,-3.30 4.06,-2.80 4.40,-2.31 4.62,-1.75 4.83,-1.19 4.90,-0.59 4.97,0.00 4.97,0.00 L 4.97,0 Z"></path></g><g transform="translate(180.06404705625368 521.3534085245883) rotate(0 19.50275768993731 3.510496384188855)" stroke="none"><path fill="#e03131" d="M 0.22,-4.49 Q 0.22,-4.49 4.69,-4.02 9.17,-3.55 13.46,-2.82 17.75,-2.10 21.33,-1.18 24.91,-0.27 27.61,0.19 30.31,0.66 32.81,1.28 35.30,1.90 37.62,2.25 39.93,2.60 40.61,2.87 41.29,3.13 41.85,3.60 42.41,4.07 42.79,4.69 43.17,5.31 43.34,6.02 43.50,6.73 43.43,7.46 43.36,8.18 43.05,8.85 42.75,9.51 42.26,10.05 41.76,10.58 41.12,10.93 40.48,11.28 39.76,11.40 39.04,11.52 38.32,11.41 37.60,11.30 36.95,10.96 36.30,10.63 35.80,10.10 35.29,9.58 34.98,8.92 34.67,8.26 34.58,7.53 34.50,6.81 34.65,6.10 34.80,5.38 35.17,4.75 35.54,4.13 36.09,3.65 36.64,3.17 37.32,2.90 37.99,2.62 38.72,2.58 39.45,2.53 40.15,2.72 40.86,2.91 41.47,3.31 42.07,3.72 42.52,4.29 42.97,4.87 43.21,5.56 43.44,6.25 43.45,6.98 43.46,7.71 43.23,8.40 43.00,9.09 42.57,9.68 42.13,10.26 41.53,10.68 40.93,11.09 40.23,11.29 39.53,11.49 38.80,11.46 38.07,11.43 38.07,11.43 38.07,11.43 35.43,10.73 32.79,10.04 30.70,9.25 28.60,8.45 25.77,7.70 22.95,6.96 19.87,6.06 16.78,5.17 12.77,4.81 8.77,4.44 4.27,4.46 -0.22,4.49 -0.75,4.39 -1.29,4.30 -1.78,4.08 -2.28,3.87 -2.71,3.54 -3.14,3.21 -3.48,2.78 -3.82,2.36 -4.05,1.87 -4.27,1.38 -4.38,0.85 -4.48,0.31 -4.45,-0.22 -4.43,-0.76 -4.27,-1.28 -4.11,-1.80 -3.84,-2.26 -3.56,-2.73 -3.18,-3.12 -2.80,-3.51 -2.34,-3.79 -1.88,-4.08 -1.37,-4.24 -0.85,-4.41 -0.31,-4.45 0.22,-4.49 0.22,-4.49 L 0.22,-4.49 Z"></path></g><g transform="translate(198.0065841309961 548.6572692905006) rotate(0 -16.382316459547383 11.311599460163734)" stroke="none"><path fill="#e03131" d="M 3.06,3.67 Q 3.06,3.67 0.31,5.84 -2.44,8.01 -5.03,9.94 -7.62,11.87 -10.83,13.94 -14.04,16.01 -16.80,17.70 -19.57,19.38 -23.00,21.70 -26.42,24.02 -28.14,25.36 -29.86,26.70 -30.59,27.06 -31.32,27.41 -32.12,27.52 -32.92,27.62 -33.72,27.47 -34.51,27.31 -35.22,26.91 -35.92,26.50 -36.46,25.90 -36.99,25.29 -37.31,24.55 -37.63,23.80 -37.69,22.99 -37.75,22.18 -37.55,21.40 -37.35,20.61 -36.91,19.93 -36.47,19.25 -35.83,18.75 -35.20,18.24 -34.44,17.97 -33.68,17.69 -32.87,17.68 -32.06,17.66 -31.28,17.90 -30.51,18.14 -29.85,18.62 -29.20,19.10 -28.73,19.76 -28.26,20.42 -28.03,21.19 -27.79,21.97 -27.82,22.78 -27.85,23.59 -28.13,24.35 -28.41,25.11 -28.93,25.74 -29.44,26.37 -30.12,26.80 -30.81,27.23 -31.59,27.42 -32.38,27.61 -33.19,27.54 -34.00,27.47 -34.74,27.15 -35.48,26.82 -36.08,26.28 -36.68,25.73 -37.08,25.03 -37.47,24.32 -37.62,23.52 -37.77,22.72 -37.65,21.92 -37.54,21.12 -37.17,20.40 -36.81,19.67 -36.23,19.10 -35.66,18.53 -35.66,18.53 -35.66,18.53 -33.62,17.21 -31.58,15.88 -27.82,13.86 -24.06,11.83 -21.52,10.35 -18.98,8.88 -16.04,6.69 -13.10,4.50 -10.71,2.72 -8.32,0.95 -5.69,-1.36 -3.06,-3.67 -2.57,-3.98 -2.09,-4.30 -1.54,-4.49 -1.00,-4.67 -0.42,-4.73 0.14,-4.78 0.71,-4.69 1.28,-4.61 1.81,-4.38 2.35,-4.16 2.81,-3.82 3.28,-3.48 3.65,-3.04 4.01,-2.59 4.27,-2.07 4.52,-1.56 4.64,-0.99 4.76,-0.43 4.74,0.14 4.73,0.72 4.57,1.27 4.42,1.83 4.13,2.33 3.85,2.83 3.45,3.25 3.06,3.67 3.06,3.67 L 3.06,3.67 Z"></path></g><g transform="translate(194.10603259300865 558.7987032892679) rotate(0 10.141433998767411 12.871820075358755)" stroke="none"><path fill="#e03131" d="M 3.90,-3.46 Q 3.90,-3.46 5.69,-1.44 7.48,0.57 9.02,2.37 10.56,4.18 12.45,5.96 14.34,7.75 15.72,9.94 17.10,12.12 19.56,15.15 22.02,18.17 23.70,20.55 25.37,22.93 25.69,23.82 26.00,24.70 26.02,25.64 26.03,26.58 25.75,27.48 25.46,28.38 24.91,29.14 24.35,29.90 23.58,30.44 22.81,30.98 21.91,31.25 21.00,31.51 20.06,31.48 19.12,31.44 18.24,31.11 17.36,30.77 16.63,30.18 15.91,29.58 15.41,28.78 14.91,27.98 14.69,27.07 14.47,26.15 14.56,25.21 14.65,24.27 15.03,23.41 15.41,22.55 16.04,21.86 16.68,21.16 17.51,20.71 18.33,20.26 19.26,20.09 20.18,19.92 21.11,20.06 22.05,20.19 22.88,20.62 23.72,21.05 24.38,21.72 25.04,22.39 25.45,23.24 25.86,24.09 25.98,25.02 26.09,25.96 25.91,26.88 25.72,27.80 25.25,28.62 24.77,29.43 24.07,30.05 23.36,30.67 22.49,31.04 21.62,31.40 20.68,31.47 19.74,31.53 18.83,31.30 17.92,31.06 17.13,30.54 16.35,30.03 15.76,29.29 15.18,28.55 15.18,28.55 15.18,28.55 13.21,25.55 11.23,22.56 8.36,18.61 5.50,14.66 3.92,12.79 2.35,10.91 1.02,9.20 -0.31,7.50 -2.10,5.48 -3.90,3.46 -4.26,2.95 -4.62,2.43 -4.84,1.84 -5.06,1.25 -5.14,0.63 -5.22,0.00 -5.14,-0.61 -5.07,-1.24 -4.85,-1.83 -4.62,-2.41 -4.27,-2.93 -3.91,-3.45 -3.44,-3.87 -2.97,-4.29 -2.41,-4.58 -1.85,-4.88 -1.24,-5.03 -0.63,-5.18 -0.00,-5.18 0.62,-5.18 1.23,-5.03 1.84,-4.88 2.40,-4.59 2.96,-4.30 3.43,-3.88 3.90,-3.46 3.90,-3.46 L 3.90,-3.46 Z"></path></g><g transform="translate(157.44084813592622 89.95240842317435) rotate(0 125.98781467699541 11.311599460163507)" stroke="none"><path fill="#e03131" d="M 1.39,-2.79 Q 1.39,-2.79 5.85,-0.49 10.30,1.81 14.37,3.67 18.44,5.54 25.15,7.41 31.86,9.28 41.42,11.22 50.99,13.15 58.82,14.20 66.65,15.25 79.62,16.60 92.59,17.95 107.23,18.52 121.87,19.10 132.37,19.35 142.87,19.60 154.72,19.70 166.57,19.81 177.00,19.86 187.42,19.91 194.99,19.93 202.56,19.95 211.12,19.74 219.69,19.52 225.50,18.99 231.31,18.45 236.64,17.56 241.96,16.68 244.40,16.37 246.85,16.06 247.17,16.04 247.50,16.03 247.82,16.09 248.13,16.16 248.43,16.29 248.72,16.43 248.98,16.64 249.23,16.84 249.42,17.10 249.62,17.36 249.75,17.66 249.88,17.96 249.93,18.28 249.99,18.60 249.96,18.92 249.94,19.25 249.83,19.56 249.73,19.86 249.56,20.14 249.39,20.42 249.15,20.64 248.92,20.87 248.64,21.03 248.36,21.20 248.04,21.29 247.73,21.38 247.53,21.40 247.32,21.42 246.89,21.35 246.46,21.28 246.07,21.08 245.68,20.88 245.38,20.57 245.07,20.26 244.89,19.86 244.70,19.47 244.65,19.03 244.59,18.60 244.68,18.17 244.77,17.75 244.99,17.37 245.22,16.99 245.55,16.71 245.87,16.42 246.28,16.26 246.68,16.09 247.12,16.06 247.55,16.03 247.98,16.15 248.40,16.26 248.76,16.50 249.12,16.74 249.39,17.08 249.66,17.43 249.80,17.84 249.95,18.25 249.95,18.69 249.96,19.13 249.82,19.54 249.69,19.96 249.43,20.31 249.17,20.66 248.81,20.91 248.45,21.15 248.03,21.28 247.61,21.40 247.17,21.38 246.74,21.36 246.33,21.20 245.92,21.04 245.59,20.76 245.25,20.49 245.02,20.11 244.79,19.74 244.70,19.32 244.60,18.89 244.64,18.46 244.68,18.02 244.86,17.62 245.04,17.23 245.34,16.91 245.64,16.59 246.02,16.38 246.40,16.17 246.62,16.11 246.85,16.06 247.17,16.04 247.50,16.03 247.82,16.09 248.13,16.16 248.43,16.29 248.72,16.43 248.98,16.64 249.23,16.84 249.42,17.10 249.62,17.36 249.75,17.66 249.88,17.96 249.93,18.28 249.98,18.60 249.96,18.92 249.94,19.25 249.83,19.56 249.73,19.86 249.56,20.14 249.39,20.42 249.15,20.64 248.92,20.87 248.64,21.03 248.36,21.20 248.04,21.29 247.73,21.38 245.28,21.62 242.83,21.87 237.31,22.78 231.79,23.70 225.81,24.25 219.82,24.79 211.18,25.01 202.55,25.23 194.97,25.22 187.40,25.20 176.96,25.16 166.53,25.12 154.64,25.02 142.75,24.92 132.20,24.69 121.66,24.45 106.85,23.89 92.04,23.32 78.99,21.99 65.94,20.66 57.92,19.61 49.91,18.57 40.13,16.64 30.36,14.71 23.23,12.77 16.09,10.82 11.86,8.99 7.63,7.15 3.11,4.97 -1.39,2.79 -1.71,2.58 -2.02,2.37 -2.28,2.10 -2.53,1.82 -2.71,1.49 -2.89,1.16 -2.99,0.80 -3.09,0.43 -3.10,0.06 -3.10,-0.31 -3.02,-0.68 -2.94,-1.05 -2.77,-1.38 -2.60,-1.72 -2.36,-2.01 -2.11,-2.29 -1.81,-2.51 -1.50,-2.73 -1.15,-2.87 -0.80,-3.01 -0.43,-3.07 -0.06,-3.12 0.31,-3.08 0.68,-3.04 1.04,-2.92 1.39,-2.79 1.39,-2.79 L 1.39,-2.79 Z"></path></g><g transform="translate(237.79220981846834 116.47615888148903) rotate(0 63.96904522299451 -42.125956610264666)" stroke="none"><path fill="#e03131" d="M -3.62,0 Q -3.62,0 -3.76,-2.69 -3.91,-5.38 -3.79,-9.44 -3.67,-13.50 -3.53,-16.71 -3.40,-19.93 -1.97,-25.31 -0.55,-30.69 0.98,-36.23 2.52,-41.76 3.16,-45.73 3.80,-49.70 4.58,-54.59 5.35,-59.48 6.39,-64.12 7.43,-68.76 7.62,-71.53 7.82,-74.30 7.79,-76.52 7.75,-78.75 8.27,-81.95 8.79,-85.16 11.21,-86.44 13.62,-87.71 17.18,-86.27 20.73,-84.84 24.20,-83.29 27.66,-81.74 31.73,-80.53 35.80,-79.33 43.94,-78.08 52.07,-76.84 61.98,-76.26 71.88,-75.69 78.81,-75.40 85.74,-75.12 93.16,-74.97 100.58,-74.83 106.48,-74.52 112.38,-74.22 115.98,-74.22 119.57,-74.21 121.98,-74.31 124.39,-74.41 126.68,-73.05 128.96,-71.69 130.11,-68.20 131.26,-64.71 131.30,-59.71 131.34,-54.71 131.29,-48.16 131.23,-41.61 130.70,-36.89 130.18,-32.17 128.53,-26.18 126.89,-20.19 125.75,-15.77 124.60,-11.35 124.11,-8.70 123.62,-6.04 123.31,-3.45 122.99,-0.86 122.79,-0.30 122.58,0.25 122.21,0.72 121.83,1.19 121.33,1.51 120.82,1.84 120.24,1.98 119.66,2.13 119.06,2.08 118.46,2.03 117.91,1.80 117.36,1.56 116.91,1.16 116.47,0.76 116.17,0.24 115.87,-0.27 115.76,-0.86 115.65,-1.45 115.73,-2.04 115.81,-2.64 116.07,-3.18 116.34,-3.71 116.76,-4.14 117.19,-4.56 117.72,-4.83 118.26,-5.10 118.85,-5.18 119.45,-5.26 120.04,-5.15 120.63,-5.04 121.15,-4.74 121.67,-4.45 122.07,-4.00 122.47,-3.56 122.71,-3.01 122.95,-2.45 123.00,-1.86 123.05,-1.26 122.90,-0.68 122.76,-0.10 122.44,0.40 122.11,0.91 121.65,1.28 121.18,1.66 120.62,1.87 120.06,2.07 119.46,2.09 118.86,2.11 118.28,1.93 117.71,1.76 117.22,1.41 116.73,1.06 116.38,0.57 116.03,0.09 115.86,-0.48 115.68,-1.05 115.70,-1.65 115.71,-2.25 115.71,-2.25 115.71,-2.25 116.42,-5.02 117.12,-7.78 118.01,-10.27 118.90,-12.75 119.94,-17.25 120.99,-21.75 122.39,-27.26 123.78,-32.76 124.08,-37.14 124.37,-41.52 124.14,-47.95 123.90,-54.37 123.68,-60.56 123.47,-66.75 121.42,-67.42 119.38,-68.09 115.76,-68.31 112.13,-68.52 106.32,-68.74 100.51,-68.96 93.04,-68.99 85.56,-69.02 78.57,-69.14 71.57,-69.27 61.36,-69.66 51.15,-70.04 42.58,-71.07 34.00,-72.10 29.36,-73.06 24.72,-74.03 19.92,-76.11 15.12,-78.19 14.74,-75.77 14.35,-73.34 13.72,-70.45 13.09,-67.55 12.19,-63.09 11.28,-58.63 10.65,-53.72 10.01,-48.80 9.45,-44.47 8.89,-40.14 7.60,-34.60 6.31,-29.06 5.30,-24.20 4.30,-19.35 3.98,-16.42 3.67,-13.50 3.79,-9.44 3.91,-5.38 3.76,-2.69 3.62,0 3.57,0.43 3.51,0.86 3.36,1.27 3.20,1.68 2.96,2.04 2.71,2.40 2.38,2.69 2.05,2.98 1.67,3.18 1.28,3.38 0.86,3.49 0.43,3.59 -0.00,3.59 -0.43,3.59 -0.86,3.49 -1.28,3.38 -1.67,3.18 -2.05,2.98 -2.38,2.69 -2.71,2.40 -2.96,2.04 -3.20,1.68 -3.36,1.27 -3.51,0.86 -3.57,0.43 -3.62,-0.00 -3.62,-0.00 L -3.62,0 Z"></path></g><g transform="translate(786.8784334495178 219.60735271773456) rotate(0 3.0126979191898045 25.650970854815796)" stroke="none"><path d="M-0.52 -0.74 C-2.72 -0.34, -10.71 0.08, -13.91 0.3 C-17.11 0.53, -18.09 -0.14, -19.71 0.61 C-21.32 1.37, -21.79 2.07, -23.6 4.81 C-25.41 7.55, -29.47 13.12, -30.57 17.05 C-31.66 20.97, -32.54 23.89, -30.16 28.38 C-27.77 32.87, -19.12 40.62, -16.25 43.98 C-13.38 47.34, -15.29 46.94, -12.95 48.52 C-10.6 50.1, -5.97 52.52, -2.18 53.47 C1.61 54.43, 4.54 56.21, 9.79 54.25 C15.03 52.28, 25.57 44.46, 29.31 41.68 C33.04 38.9, 31.42 39.43, 32.21 37.58 C33 35.73, 33.25 32.82, 34.03 30.59 C34.8 28.35, 36.97 26.67, 36.85 24.19 C36.73 21.7, 34.82 17.72, 33.28 15.67 C31.74 13.62, 29.53 13.35, 27.63 11.87 C25.74 10.4, 25.85 8.21, 21.92 6.81 C17.98 5.4, 7.55 4.77, 4 3.45 C0.45 2.13, 1.3 -0.92, 0.6 -1.11" stroke="none" stroke-width="0" fill="#ffffff" fill-rule="evenodd"></path><path fill="#e03131" d="M -0.38,5.32 Q -0.38,5.32 -2.46,5.22 -4.54,5.12 -7.60,5.39 -10.66,5.65 -13.31,6.35 -15.97,7.05 -17.69,8.34 -19.42,9.64 -20.78,12.50 -22.15,15.36 -22.78,17.83 -23.42,20.30 -23.46,23.19 -23.51,26.08 -22.25,27.89 -20.99,29.71 -19.35,32.04 -17.71,34.37 -16.34,36.16 -14.97,37.96 -12.89,39.58 -10.80,41.20 -8.24,42.14 -5.69,43.08 -2.98,43.74 -0.27,44.39 1.86,44.61 3.99,44.83 6.91,44.64 9.83,44.45 12.89,43.41 15.94,42.36 19.19,41.10 22.43,39.85 24.25,37.94 26.06,36.03 27.32,33.27 28.59,30.50 28.91,28.33 29.23,26.15 28.39,23.82 27.54,21.50 26.13,19.72 24.73,17.95 22.83,16.52 20.94,15.09 18.31,13.78 15.67,12.46 13.38,11.79 11.10,11.11 8.38,10.65 5.66,10.20 3.56,9.26 1.47,8.33 -0.47,7.60 -2.42,6.86 -3.45,6.30 -4.48,5.73 -5.28,4.86 -6.08,4.00 -6.56,2.92 -7.04,1.85 -7.15,0.67 -7.26,-0.49 -6.99,-1.64 -6.72,-2.78 -6.10,-3.78 -5.48,-4.79 -4.57,-5.54 -3.66,-6.29 -2.56,-6.71 -1.46,-7.13 -0.28,-7.17 0.88,-7.22 2.01,-6.89 3.14,-6.56 4.11,-5.89 5.08,-5.21 5.78,-4.26 6.48,-3.32 6.84,-2.19 7.20,-1.07 7.18,0.10 7.16,1.27 6.77,2.38 6.38,3.50 5.65,4.42 4.93,5.35 3.94,6.00 2.96,6.65 1.82,6.95 0.68,7.24 -0.48,7.16 -1.66,7.08 -2.75,6.63 -3.84,6.18 -4.72,5.41 -5.61,4.63 -6.20,3.61 -6.80,2.59 -7.03,1.44 -7.27,0.29 -7.13,-0.87 -6.98,-2.04 -6.47,-3.10 -5.96,-4.17 -5.14,-5.01 -4.32,-5.85 -3.27,-6.39 -2.22,-6.93 -1.06,-7.10 0.10,-7.28 1.26,-7.07 2.42,-6.86 2.42,-6.86 2.42,-6.86 4.65,-6.12 6.88,-5.38 9.02,-4.32 11.16,-3.27 14.03,-2.75 16.90,-2.24 19.05,-1.45 21.21,-0.66 23.66,0.43 26.12,1.54 28.65,3.12 31.18,4.70 33.42,6.74 35.67,8.78 37.08,10.64 38.50,12.50 39.95,15.05 41.39,17.60 42.10,19.75 42.82,21.89 43.02,24.41 43.23,26.92 42.81,30.11 42.39,33.29 41.53,35.69 40.66,38.10 39.55,40.20 38.44,42.29 36.61,44.75 34.78,47.22 32.31,49.14 29.84,51.07 27.09,52.30 24.34,53.53 20.94,54.84 17.55,56.16 14.91,57.06 12.27,57.96 8.94,58.27 5.60,58.59 2.78,58.38 -0.04,58.16 -3.22,57.63 -6.39,57.09 -9.81,56.06 -13.22,55.03 -15.64,54.03 -18.06,53.03 -20.82,51.02 -23.58,49.01 -25.69,46.57 -27.80,44.13 -29.34,41.93 -30.88,39.73 -32.46,37.50 -34.05,35.26 -35.25,32.55 -36.46,29.84 -36.71,26.64 -36.97,23.45 -36.76,20.76 -36.55,18.06 -35.76,15.22 -34.97,12.38 -33.81,9.86 -32.64,7.33 -31.39,5.21 -30.14,3.09 -28.32,1.14 -26.51,-0.80 -23.68,-2.35 -20.86,-3.90 -18.11,-4.49 -15.36,-5.08 -11.83,-5.42 -8.30,-5.75 -6.03,-5.74 -3.77,-5.72 -1.69,-5.52 0.38,-5.32 1.01,-5.19 1.64,-5.07 2.22,-4.80 2.80,-4.53 3.31,-4.13 3.81,-3.73 4.20,-3.22 4.59,-2.71 4.85,-2.12 5.11,-1.53 5.21,-0.89 5.32,-0.26 5.28,0.37 5.23,1.01 5.03,1.63 4.84,2.24 4.50,2.78 4.16,3.33 3.70,3.78 3.24,4.23 2.69,4.56 2.13,4.88 1.52,5.07 0.90,5.25 0.26,5.28 -0.38,5.32 -0.38,5.32 L -0.38,5.32 Z"></path></g><g transform="translate(775.6884126068128 238.2000027333056) rotate(0 0.00005000000010113581 0.00005000000010113581)" stroke="none"><path fill="#e03131" d="M 3.14,-3.14 Q 3.14,-3.14 3.55,-2.55 3.97,-1.97 4.18,-1.28 4.40,-0.59 4.38,0.11 4.36,0.83 4.11,1.51 3.86,2.18 3.41,2.74 2.96,3.30 2.36,3.69 1.75,4.08 1.05,4.25 0.36,4.42 -0.35,4.36 -1.07,4.31 -1.73,4.02 -2.39,3.74 -2.92,3.26 -3.46,2.78 -3.81,2.15 -4.16,1.53 -4.30,0.82 -4.43,0.11 -4.34,-0.59 -4.24,-1.30 -3.92,-1.94 -3.60,-2.59 -3.09,-3.09 -2.59,-3.60 -1.94,-3.92 -1.30,-4.24 -0.59,-4.34 0.12,-4.43 0.82,-4.30 1.53,-4.16 2.15,-3.81 2.78,-3.46 3.26,-2.92 3.74,-2.39 4.02,-1.73 4.31,-1.07 4.36,-0.35 4.42,0.36 4.25,1.05 4.07,1.75 3.69,2.36 3.30,2.96 2.74,3.41 2.18,3.86 1.51,4.11 0.83,4.36 0.11,4.38 -0.60,4.40 -1.28,4.18 -1.97,3.97 -2.55,3.55 -3.14,3.13 -3.14,3.14 -3.14,3.14 -3.47,2.71 -3.80,2.29 -4.02,1.80 -4.24,1.32 -4.33,0.79 -4.43,0.26 -4.40,-0.26 -4.36,-0.80 -4.20,-1.31 -4.04,-1.82 -3.77,-2.28 -3.49,-2.73 -3.11,-3.11 -2.73,-3.49 -2.28,-3.77 -1.82,-4.05 -1.31,-4.20 -0.80,-4.36 -0.26,-4.40 0.26,-4.43 0.79,-4.33 1.32,-4.24 1.80,-4.02 2.29,-3.80 2.71,-3.47 3.14,-3.14 3.14,-3.14 L 3.14,-3.14 Z"></path></g><g transform="translate(795.1418334564385 240.43800690184662) rotate(0 0.00005000000010113581 0.00005000000010113581)" stroke="none"><path fill="#e03131" d="M 3.14,-3.14 Q 3.14,-3.14 3.55,-2.55 3.97,-1.97 4.18,-1.28 4.40,-0.59 4.38,0.11 4.36,0.83 4.11,1.51 3.86,2.18 3.41,2.74 2.96,3.30 2.36,3.69 1.75,4.08 1.05,4.25 0.36,4.42 -0.35,4.36 -1.07,4.31 -1.73,4.02 -2.39,3.74 -2.92,3.26 -3.46,2.78 -3.81,2.15 -4.16,1.53 -4.30,0.82 -4.43,0.11 -4.34,-0.59 -4.24,-1.30 -3.92,-1.94 -3.60,-2.59 -3.09,-3.09 -2.59,-3.60 -1.94,-3.92 -1.30,-4.24 -0.59,-4.34 0.12,-4.43 0.82,-4.30 1.53,-4.16 2.15,-3.81 2.78,-3.46 3.26,-2.92 3.74,-2.39 4.02,-1.73 4.31,-1.07 4.36,-0.35 4.42,0.36 4.25,1.05 4.07,1.75 3.69,2.36 3.30,2.96 2.74,3.41 2.18,3.86 1.51,4.11 0.83,4.36 0.11,4.38 -0.60,4.40 -1.28,4.18 -1.97,3.97 -2.55,3.55 -3.14,3.13 -3.14,3.14 -3.14,3.14 -3.47,2.71 -3.80,2.29 -4.02,1.80 -4.24,1.32 -4.33,0.79 -4.43,0.26 -4.40,-0.26 -4.36,-0.80 -4.20,-1.31 -4.04,-1.82 -3.77,-2.28 -3.49,-2.73 -3.11,-3.11 -2.73,-3.49 -2.28,-3.77 -1.82,-4.05 -1.31,-4.20 -0.80,-4.36 -0.26,-4.40 0.26,-4.43 0.79,-4.33 1.32,-4.24 1.80,-4.02 2.29,-3.80 2.71,-3.47 3.14,-3.14 3.14,-3.14 L 3.14,-3.14 Z"></path></g><g transform="translate(774.6554876059479 251.80018191136242) rotate(0 4.820316670703733 1.1190020842705053)" stroke="none"><path fill="#e03131" d="M 2.11,-4.49 Q 2.11,-4.49 2.99,-4.17 3.87,-3.85 7.45,-3.47 11.04,-3.09 11.88,-2.72 12.72,-2.35 13.40,-1.73 14.08,-1.12 14.53,-0.31 14.98,0.48 15.14,1.38 15.31,2.28 15.18,3.19 15.05,4.10 14.64,4.92 14.23,5.74 13.58,6.39 12.92,7.04 12.10,7.44 11.27,7.84 10.36,7.96 9.45,8.08 8.55,7.90 7.65,7.72 6.85,7.27 6.05,6.81 5.44,6.12 4.83,5.44 4.48,4.59 4.12,3.74 4.05,2.83 3.98,1.91 4.21,1.02 4.43,0.13 4.93,-0.63 5.43,-1.40 6.15,-1.97 6.87,-2.54 7.73,-2.86 8.60,-3.17 9.52,-3.19 10.44,-3.21 11.31,-2.93 12.19,-2.66 12.93,-2.12 13.67,-1.58 14.21,-0.83 14.74,-0.08 15.00,0.79 15.27,1.67 15.24,2.59 15.21,3.51 14.88,4.37 14.56,5.23 13.98,5.94 13.40,6.65 12.63,7.14 11.85,7.63 10.96,7.85 10.06,8.07 9.15,7.99 8.23,7.91 8.23,7.91 8.23,7.91 6.07,7.63 3.90,7.36 1.69,6.40 -0.50,5.44 -1.31,4.96 -2.11,4.49 -2.62,4.17 -3.12,3.85 -3.54,3.42 -3.96,2.99 -4.26,2.47 -4.56,1.96 -4.73,1.38 -4.89,0.81 -4.92,0.21 -4.95,-0.38 -4.83,-0.97 -4.71,-1.55 -4.45,-2.09 -4.20,-2.64 -3.82,-3.10 -3.45,-3.57 -2.97,-3.93 -2.49,-4.29 -1.94,-4.52 -1.39,-4.76 -0.80,-4.86 -0.21,-4.96 0.38,-4.91 0.97,-4.86 1.54,-4.68 2.11,-4.49 2.11,-4.49 L 2.11,-4.49 Z"></path></g><g transform="translate(788.1562281241106 275.5103319499499) rotate(0 -4.962809942989679 110.42252123152116)" stroke="none"><path fill="#e03131" d="M 3.96,0.61 Q 3.96,0.61 3.07,5.21 2.17,9.82 1.01,15.39 -0.14,20.95 -0.44,23.97 -0.73,26.98 -0.86,30.27 -0.98,33.56 -0.99,36.76 -1.00,39.95 -0.89,45.40 -0.78,50.84 -0.99,55.48 -1.20,60.12 -1.16,63.53 -1.13,66.93 -1.65,71.72 -2.17,76.51 -2.80,81.72 -3.44,86.94 -3.73,91.20 -4.03,95.46 -4.18,101.18 -4.34,106.90 -4.78,113.34 -5.23,119.78 -5.40,123.89 -5.57,127.99 -6.04,132.67 -6.50,137.36 -6.70,141.74 -6.90,146.13 -6.78,149.07 -6.65,152.02 -6.49,154.69 -6.33,157.36 -6.40,161.34 -6.48,165.32 -6.49,169.15 -6.51,172.99 -6.61,177.47 -6.72,181.95 -6.80,187.07 -6.88,192.19 -6.74,195.43 -6.60,198.67 -6.47,201.84 -6.35,205.00 -6.25,208.13 -6.15,211.25 -5.83,216.05 -5.52,220.84 -5.63,221.54 -5.75,222.25 -6.08,222.88 -6.41,223.51 -6.93,224.00 -7.45,224.49 -8.10,224.79 -8.74,225.08 -9.45,225.16 -10.16,225.24 -10.86,225.09 -11.55,224.93 -12.16,224.56 -12.77,224.20 -13.23,223.65 -13.70,223.11 -13.96,222.45 -14.22,221.79 -14.26,221.07 -14.30,220.36 -14.11,219.68 -13.92,218.99 -13.52,218.40 -13.12,217.81 -12.55,217.38 -11.98,216.95 -11.31,216.72 -10.63,216.49 -9.92,216.49 -9.21,216.49 -8.53,216.72 -7.86,216.95 -7.29,217.38 -6.72,217.81 -6.32,218.40 -5.92,218.99 -5.73,219.68 -5.54,220.36 -5.58,221.08 -5.62,221.79 -5.88,222.45 -6.15,223.11 -6.61,223.65 -7.07,224.20 -7.68,224.57 -8.29,224.93 -8.99,225.09 -9.68,225.24 -10.39,225.16 -11.10,225.08 -11.75,224.78 -12.39,224.49 -12.91,223.99 -13.43,223.50 -13.76,222.87 -14.10,222.25 -14.21,221.54 -14.33,220.84 -14.33,220.84 -14.33,220.84 -14.01,216.05 -13.69,211.25 -13.59,208.13 -13.49,205.00 -13.37,201.84 -13.24,198.67 -13.10,195.43 -12.96,192.18 -13.03,187.07 -13.11,181.95 -13.21,177.46 -13.32,172.98 -13.32,169.14 -13.32,165.29 -13.37,161.28 -13.41,157.27 -13.19,154.57 -12.97,151.86 -12.68,148.88 -12.40,145.90 -12.24,141.37 -12.07,136.84 -11.68,132.30 -11.29,127.76 -11.13,123.59 -10.96,119.42 -10.62,113.11 -10.27,106.80 -10.24,100.98 -10.21,95.15 -10.07,90.73 -9.94,86.30 -9.55,81.13 -9.16,75.97 -8.97,71.45 -8.78,66.92 -8.74,63.52 -8.70,60.11 -8.90,55.46 -9.10,50.80 -8.89,45.29 -8.69,39.77 -8.54,36.47 -8.39,33.17 -8.15,29.57 -7.91,25.97 -7.34,22.86 -6.77,19.74 -5.90,14.23 -5.02,8.71 -4.49,4.05 -3.96,-0.61 -3.83,-1.07 -3.70,-1.54 -3.46,-1.96 -3.23,-2.38 -2.89,-2.73 -2.56,-3.08 -2.15,-3.35 -1.75,-3.61 -1.29,-3.77 -0.83,-3.92 -0.35,-3.97 0.12,-4.01 0.60,-3.94 1.08,-3.86 1.53,-3.68 1.97,-3.49 2.36,-3.20 2.75,-2.91 3.06,-2.54 3.37,-2.17 3.58,-1.73 3.79,-1.30 3.89,-0.83 4.00,-0.35 3.98,0.12 3.96,0.61 3.96,0.61 L 3.96,0.61 Z"></path></g><g transform="translate(780.7120132096263 501.31818435598234) rotate(0 0.6203512428737668 47.14669445840218)" stroke="none"><path fill="#e03131" d="M 5.04,-0.56 Q 5.04,-0.56 5.33,2.65 5.61,5.87 5.83,8.42 6.04,10.97 6.15,13.52 6.26,16.07 6.35,18.22 6.45,20.37 6.56,24.63 6.68,28.89 6.70,33.58 6.73,38.26 6.76,40.46 6.79,42.65 6.92,45.36 7.04,48.06 7.19,51.15 7.35,54.24 7.47,57.27 7.59,60.31 7.61,63.61 7.64,66.91 7.61,70.91 7.57,74.91 7.61,77.97 7.65,81.03 7.60,83.42 7.54,85.80 7.49,88.24 7.43,90.68 7.45,92.48 7.46,94.29 7.30,95.28 7.13,96.28 6.66,97.17 6.19,98.05 5.46,98.75 4.73,99.44 3.81,99.86 2.90,100.29 1.90,100.39 0.90,100.50 -0.07,100.29 -1.06,100.07 -1.92,99.55 -2.78,99.03 -3.44,98.26 -4.09,97.50 -4.46,96.56 -4.83,95.63 -4.89,94.62 -4.94,93.61 -4.67,92.64 -4.40,91.67 -3.84,90.84 -3.27,90.01 -2.47,89.40 -1.67,88.79 -0.71,88.47 0.23,88.15 1.24,88.15 2.24,88.15 3.20,88.47 4.15,88.79 4.95,89.40 5.75,90.01 6.32,90.84 6.88,91.68 7.15,92.65 7.42,93.62 7.37,94.62 7.31,95.63 6.94,96.56 6.57,97.50 5.92,98.27 5.26,99.03 4.40,99.55 3.54,100.07 2.55,100.29 1.57,100.50 0.57,100.39 -0.42,100.28 -1.33,99.86 -2.25,99.44 -2.98,98.75 -3.71,98.05 -4.18,97.16 -4.65,96.27 -4.82,95.28 -4.98,94.29 -4.98,94.29 -4.98,94.29 -4.96,92.48 -4.95,90.68 -5.01,88.24 -5.06,85.80 -5.12,83.42 -5.17,81.03 -5.13,77.97 -5.09,74.91 -5.12,70.91 -5.16,66.91 -5.13,63.61 -5.11,60.31 -4.99,57.27 -4.87,54.24 -4.71,51.15 -4.56,48.06 -4.44,45.36 -4.31,42.66 -4.28,40.46 -4.25,38.27 -4.23,33.59 -4.21,28.92 -4.18,26.66 -4.15,24.41 -4.06,20.38 -3.97,16.34 -3.99,13.97 -4.01,11.60 -4.10,9.28 -4.19,6.96 -4.61,3.76 -5.04,0.56 -5.04,-0.05 -5.03,-0.66 -4.88,-1.25 -4.73,-1.84 -4.44,-2.38 -4.15,-2.92 -3.73,-3.38 -3.32,-3.83 -2.82,-4.17 -2.31,-4.52 -1.73,-4.73 -1.16,-4.94 -0.55,-5.01 0.05,-5.07 0.65,-4.99 1.26,-4.91 1.83,-4.69 2.40,-4.47 2.90,-4.11 3.40,-3.76 3.80,-3.30 4.20,-2.84 4.48,-2.29 4.76,-1.75 4.90,-1.15 5.04,-0.56 5.04,-0.56 L 5.04,-0.56 Z"></path></g><g transform="translate(781.9527156953739 595.6115732727867) rotate(0 -39.08212830104412 61.414773044497906)" stroke="none"><path fill="#e03131" d="M 2.87,1.23 Q 2.87,1.23 0.66,6.19 -1.53,11.16 -3.59,15.13 -5.66,19.10 -9.45,25.13 -13.23,31.16 -17.33,37.61 -21.42,44.05 -24.66,48.30 -27.90,52.55 -31.31,58.13 -34.73,63.70 -39.09,70.43 -43.45,77.15 -45.96,81.70 -48.48,86.25 -51.74,91.48 -55.01,96.72 -57.80,101.39 -60.58,106.07 -62.85,109.56 -65.12,113.06 -67.13,115.55 -69.15,118.04 -70.99,120.51 -72.83,122.98 -74.02,124.35 -75.22,125.72 -75.76,126.12 -76.30,126.51 -76.93,126.71 -77.57,126.91 -78.24,126.90 -78.91,126.89 -79.54,126.66 -80.17,126.44 -80.69,126.02 -81.21,125.61 -81.58,125.04 -81.94,124.48 -82.11,123.84 -82.27,123.19 -82.22,122.52 -82.18,121.86 -81.92,121.24 -81.66,120.62 -81.21,120.12 -80.77,119.62 -80.19,119.29 -79.61,118.96 -78.96,118.83 -78.30,118.70 -77.64,118.78 -76.97,118.87 -76.37,119.16 -75.77,119.45 -75.30,119.92 -74.82,120.39 -74.52,120.99 -74.22,121.58 -74.12,122.25 -74.03,122.91 -74.15,123.56 -74.27,124.22 -74.60,124.81 -74.92,125.39 -75.42,125.84 -75.91,126.29 -76.52,126.56 -77.13,126.83 -77.80,126.89 -78.47,126.94 -79.12,126.79 -79.77,126.63 -80.33,126.27 -80.90,125.92 -81.32,125.40 -81.74,124.88 -81.98,124.26 -82.21,123.63 -82.23,122.96 -82.26,122.30 -82.06,121.66 -81.87,121.01 -81.49,120.47 -81.10,119.92 -81.10,119.92 -81.10,119.92 -79.76,118.73 -78.42,117.53 -76.07,115.64 -73.72,113.76 -71.68,111.91 -69.63,110.06 -67.38,106.71 -65.13,103.36 -62.32,98.64 -59.51,93.91 -56.33,88.79 -53.14,83.67 -50.55,78.96 -47.95,74.24 -43.64,67.57 -39.34,60.89 -35.79,55.08 -32.25,49.26 -29.17,45.18 -26.10,41.10 -22.06,34.64 -18.02,28.19 -14.41,22.34 -10.81,16.49 -8.92,12.65 -7.02,8.81 -4.94,3.78 -2.87,-1.23 -2.68,-1.55 -2.49,-1.88 -2.23,-2.15 -1.97,-2.42 -1.65,-2.62 -1.33,-2.82 -0.97,-2.94 -0.61,-3.06 -0.24,-3.09 0.13,-3.12 0.50,-3.06 0.87,-2.99 1.22,-2.85 1.56,-2.70 1.86,-2.47 2.16,-2.24 2.40,-1.95 2.64,-1.66 2.80,-1.32 2.96,-0.98 3.04,-0.61 3.11,-0.24 3.09,0.13 3.08,0.50 2.97,0.86 2.87,1.23 2.87,1.23 L 2.87,1.23 Z"></path></g><g transform="translate(788.1562281241106 605.5371931587661) rotate(0 77.54390535921448 56.45196310150823)" stroke="none"><path fill="#e03131" d="M 2.21,-2.21 Q 2.21,-2.21 6.08,1.76 9.96,5.73 13.07,9.27 16.18,12.81 19.17,15.64 22.16,18.47 26.23,21.79 30.31,25.12 37.05,30.48 43.80,35.84 50.20,40.60 56.60,45.36 66.83,53.11 77.06,60.86 89.24,69.85 101.42,78.85 109.72,84.04 118.03,89.24 125.52,93.97 133.02,98.71 138.29,101.76 143.57,104.82 146.49,105.89 149.41,106.97 149.42,104.97 149.42,102.97 149.53,102.27 149.65,101.56 149.98,100.93 150.32,100.29 150.84,99.80 151.36,99.31 152.01,99.01 152.66,98.71 153.37,98.63 154.08,98.55 154.78,98.71 155.48,98.86 156.09,99.23 156.71,99.60 157.17,100.15 157.63,100.69 157.90,101.36 158.16,102.02 158.20,102.74 158.24,103.45 158.05,104.14 157.86,104.83 157.46,105.43 157.05,106.02 156.48,106.45 155.91,106.88 155.23,107.11 154.56,107.34 153.84,107.34 153.12,107.34 152.45,107.11 151.77,106.88 151.20,106.45 150.63,106.01 150.23,105.42 149.83,104.83 149.63,104.14 149.44,103.45 149.48,102.73 149.52,102.02 149.79,101.35 150.05,100.69 150.52,100.14 150.98,99.60 151.59,99.23 152.21,98.86 152.91,98.71 153.60,98.55 154.32,98.63 155.03,98.71 155.68,99.01 156.33,99.31 156.85,99.80 157.37,100.30 157.70,100.93 158.04,101.56 158.15,102.27 158.27,102.98 158.27,102.98 158.27,102.97 158.12,104.51 157.97,106.04 157.36,109.04 156.75,112.04 154.74,113.24 152.74,114.44 149.86,113.46 146.99,112.48 143.96,110.94 140.93,109.39 135.56,106.29 130.19,103.19 122.70,98.46 115.21,93.74 106.73,88.44 98.25,83.14 86.04,74.14 73.83,65.14 63.60,57.42 53.38,49.70 46.89,44.91 40.41,40.12 33.62,34.77 26.83,29.43 22.57,26.01 18.30,22.60 15.09,19.64 11.88,16.67 8.80,13.32 5.73,9.96 1.76,6.08 -2.21,2.21 -2.44,1.91 -2.67,1.61 -2.82,1.27 -2.98,0.92 -3.05,0.55 -3.11,0.18 -3.09,-0.18 -3.07,-0.56 -2.96,-0.92 -2.85,-1.28 -2.65,-1.60 -2.46,-1.92 -2.19,-2.19 -1.92,-2.46 -1.60,-2.65 -1.28,-2.85 -0.92,-2.96 -0.56,-3.07 -0.18,-3.09 0.18,-3.11 0.55,-3.05 0.93,-2.98 1.27,-2.82 1.61,-2.67 1.91,-2.44 2.21,-2.20 2.21,-2.21 L 2.21,-2.21 Z"></path></g><g transform="translate(789.3969306098581 368.56301838100717) rotate(0 93.05268643105728 33.498967115180676)" stroke="none"><path fill="#e03131" d="M 2.16,-2.25 Q 2.16,-2.25 11.03,6.35 19.90,14.96 26.75,20.32 33.59,25.67 43.46,30.72 53.33,35.77 67.17,41.87 81.01,47.98 93.22,51.97 105.43,55.97 119.04,58.36 132.66,60.75 144.83,61.77 156.99,62.80 163.97,63.24 170.95,63.69 175.32,63.88 179.70,64.07 182.96,64.02 186.23,63.98 186.71,64.07 187.18,64.17 187.61,64.42 188.03,64.67 188.35,65.04 188.67,65.41 188.86,65.86 189.04,66.31 189.07,66.80 189.11,67.28 188.98,67.76 188.86,68.23 188.59,68.64 188.32,69.04 187.93,69.34 187.55,69.64 187.09,69.81 186.62,69.97 186.14,69.97 185.65,69.98 185.18,69.83 184.72,69.68 184.32,69.39 183.93,69.10 183.65,68.69 183.37,68.29 183.24,67.82 183.10,67.35 183.12,66.87 183.14,66.38 183.32,65.92 183.49,65.47 183.81,65.09 184.12,64.71 184.53,64.46 184.95,64.20 185.43,64.09 185.90,63.98 186.39,64.03 186.87,64.07 187.32,64.27 187.77,64.47 188.12,64.81 188.48,65.14 188.72,65.57 188.95,66.00 189.04,66.48 189.12,66.96 189.05,67.44 188.97,67.92 188.75,68.36 188.53,68.79 188.18,69.13 187.82,69.47 187.38,69.68 186.94,69.89 186.46,69.95 185.97,70.01 185.97,70.01 185.97,70.01 182.73,69.69 179.48,69.37 175.05,69.19 170.61,69.01 163.58,68.57 156.55,68.14 144.14,67.10 131.73,66.07 117.73,63.61 103.74,61.15 91.27,57.10 78.79,53.04 64.78,46.91 50.77,40.79 40.42,35.52 30.07,30.25 22.92,24.76 15.76,19.27 6.80,10.76 -2.16,2.25 -2.40,1.96 -2.64,1.67 -2.80,1.33 -2.96,0.99 -3.03,0.62 -3.11,0.25 -3.09,-0.12 -3.08,-0.50 -2.97,-0.86 -2.87,-1.22 -2.68,-1.55 -2.49,-1.87 -2.23,-2.14 -1.97,-2.41 -1.65,-2.62 -1.33,-2.82 -0.98,-2.94 -0.62,-3.06 -0.25,-3.09 0.12,-3.12 0.49,-3.06 0.86,-3.00 1.21,-2.85 1.56,-2.70 1.86,-2.47 2.16,-2.25 2.16,-2.25 L 2.16,-2.25 Z"></path></g><g transform="translate(773.267798295142 382.2107457242291) rotate(0 -97.39514513117342 71.34039293047704)" stroke="none"><path fill="#e03131" d="M 2.32,2.09 Q 2.32,2.09 -0.94,5.61 -4.20,9.13 -9.33,13.26 -14.45,17.40 -19.05,21.20 -23.66,25.01 -33.11,33.03 -42.56,41.06 -58.11,51.69 -73.66,62.32 -84.17,69.30 -94.67,76.29 -106.95,84.93 -119.22,93.58 -129.10,100.47 -138.97,107.37 -143.85,110.99 -148.73,114.60 -152.17,117.52 -155.62,120.44 -158.40,123.70 -161.17,126.96 -164.31,129.69 -167.45,132.41 -170.31,134.17 -173.17,135.92 -177.64,137.93 -182.10,139.93 -185.02,141.31 -187.94,142.70 -190.47,144.31 -193.01,145.92 -193.57,146.12 -194.14,146.32 -194.74,146.33 -195.34,146.34 -195.91,146.15 -196.48,145.97 -196.96,145.61 -197.44,145.26 -197.78,144.77 -198.12,144.27 -198.29,143.70 -198.46,143.12 -198.44,142.53 -198.41,141.93 -198.20,141.37 -197.98,140.81 -197.60,140.35 -197.22,139.89 -196.71,139.57 -196.20,139.25 -195.62,139.12 -195.03,138.98 -194.44,139.04 -193.84,139.10 -193.30,139.34 -192.75,139.58 -192.31,139.99 -191.87,140.40 -191.58,140.92 -191.29,141.45 -191.19,142.04 -191.08,142.63 -191.17,143.22 -191.26,143.81 -191.54,144.34 -191.81,144.88 -192.24,145.29 -192.67,145.71 -193.21,145.97 -193.75,146.23 -194.34,146.30 -194.94,146.37 -195.52,146.25 -196.11,146.13 -196.63,145.83 -197.14,145.53 -197.54,145.08 -197.93,144.63 -198.16,144.07 -198.39,143.52 -198.43,142.92 -198.47,142.32 -198.32,141.74 -198.17,141.17 -197.84,140.67 -197.51,140.16 -197.03,139.80 -196.56,139.43 -196.56,139.43 -196.56,139.43 -193.53,137.99 -190.51,136.56 -187.58,135.51 -184.65,134.45 -180.38,132.39 -176.12,130.32 -173.56,129.22 -170.99,128.13 -168.08,125.82 -165.17,123.51 -162.11,119.96 -159.05,116.41 -155.47,113.38 -151.89,110.34 -146.96,106.67 -142.03,103.00 -132.17,96.10 -122.31,89.20 -109.99,80.50 -97.66,71.79 -87.20,64.81 -76.74,57.82 -61.44,47.34 -46.14,36.85 -36.71,28.77 -27.27,20.69 -22.69,16.80 -18.10,12.91 -13.37,9.02 -8.63,5.13 -5.48,1.52 -2.32,-2.09 -2.03,-2.33 -1.75,-2.58 -1.41,-2.75 -1.08,-2.92 -0.71,-3.01 -0.35,-3.10 0.02,-3.10 0.40,-3.09 0.76,-3.00 1.13,-2.91 1.46,-2.73 1.79,-2.55 2.07,-2.30 2.35,-2.05 2.56,-1.74 2.77,-1.43 2.90,-1.07 3.03,-0.72 3.08,-0.34 3.12,0.02 3.07,0.39 3.02,0.77 2.89,1.12 2.75,1.47 2.53,1.78 2.32,2.09 2.32,2.09 L 2.32,2.09 Z"></path></g><g transform="translate(569.7925906325629 233.32644743453739) rotate(0 228.90960862040083 -9.925619885979586)" stroke="none"><path fill="#e03131" d="M 0,-3.12 Q 0,-3.12 4.63,-3.05 9.27,-2.98 19.09,-2.93 28.91,-2.88 37.72,-2.85 46.53,-2.81 60.61,-2.79 74.70,-2.76 89.25,-2.74 103.80,-2.72 113.19,-2.71 122.59,-2.69 132.24,-3.04 141.89,-3.39 149.54,-3.89 157.19,-4.38 162.54,-4.95 167.90,-5.51 173.99,-6.80 180.07,-8.09 185.71,-10.36 191.36,-12.63 196.86,-14.04 202.37,-15.44 205.39,-16.24 208.41,-17.04 211.99,-17.42 215.57,-17.80 218.12,-18.10 220.68,-18.39 224.35,-19.05 228.02,-19.70 231.46,-20.42 234.89,-21.14 238.71,-22.40 242.53,-23.66 244.88,-23.93 247.23,-24.20 253.01,-24.26 258.78,-24.32 262.86,-24.13 266.93,-23.94 269.37,-24.07 271.82,-24.20 275.35,-24.14 278.89,-24.09 284.67,-23.88 290.46,-23.66 294.70,-23.50 298.94,-23.35 304.31,-23.23 309.68,-23.11 314.81,-23.02 319.95,-22.94 323.56,-23.01 327.17,-23.09 332.27,-23.01 337.37,-22.92 342.03,-22.86 346.70,-22.80 349.75,-22.98 352.81,-23.15 355.45,-22.97 358.09,-22.79 361.82,-22.45 365.55,-22.10 368.57,-21.75 371.59,-21.40 374.68,-20.49 377.77,-19.59 384.11,-17.35 390.45,-15.11 395.95,-13.98 401.44,-12.86 405.56,-12.29 409.67,-11.71 414.93,-11.40 420.19,-11.10 423.89,-11.05 427.58,-10.99 430.99,-11.31 434.41,-11.62 436.10,-13.54 437.79,-15.46 440.67,-16.57 443.55,-17.69 448.33,-19.63 453.11,-21.57 454.86,-22.06 456.62,-22.55 457.48,-22.60 458.34,-22.66 459.17,-22.44 460.00,-22.21 460.72,-21.74 461.43,-21.26 461.96,-20.58 462.49,-19.90 462.77,-19.09 463.05,-18.28 463.06,-17.42 463.07,-16.56 462.80,-15.74 462.54,-14.92 462.02,-14.23 461.51,-13.54 460.80,-13.05 460.10,-12.56 459.27,-12.32 458.44,-12.08 457.58,-12.12 456.72,-12.16 455.92,-12.47 455.12,-12.78 454.46,-13.33 453.80,-13.88 453.34,-14.61 452.89,-15.35 452.70,-16.19 452.51,-17.02 452.59,-17.88 452.68,-18.74 453.03,-19.52 453.38,-20.31 453.97,-20.94 454.55,-21.57 455.31,-21.98 456.07,-22.39 456.91,-22.54 457.76,-22.68 458.61,-22.55 459.46,-22.42 460.23,-22.03 460.99,-21.63 461.59,-21.01 462.19,-20.39 462.56,-19.62 462.92,-18.84 463.03,-17.98 463.13,-17.13 462.95,-16.29 462.77,-15.44 462.34,-14.70 461.90,-13.96 461.25,-13.40 460.60,-12.83 459.80,-12.51 459.01,-12.18 459.01,-12.18 459.01,-12.18 455.47,-11.59 451.93,-11.00 447.92,-9.51 443.91,-8.03 442.24,-6.65 440.57,-5.27 437.53,-4.28 434.50,-3.30 430.97,-3.70 427.44,-4.10 423.71,-4.19 419.98,-4.28 414.48,-4.31 408.98,-4.35 404.57,-4.57 400.15,-4.79 393.97,-5.54 387.79,-6.29 383.16,-7.34 378.53,-8.38 374.79,-9.92 371.06,-11.45 368.95,-12.25 366.83,-13.05 364.10,-13.92 361.36,-14.80 359.18,-15.14 356.99,-15.48 354.89,-16.01 352.80,-16.54 349.75,-16.72 346.70,-16.89 342.03,-16.83 337.37,-16.77 332.27,-16.68 327.17,-16.60 323.56,-16.68 319.95,-16.76 314.81,-16.67 309.68,-16.58 304.31,-16.46 298.94,-16.34 294.70,-16.19 290.46,-16.03 284.67,-15.81 278.89,-15.60 275.36,-15.54 271.83,-15.49 269.39,-15.60 266.95,-15.72 262.89,-15.52 258.83,-15.31 253.28,-15.23 247.73,-15.14 244.40,-15.12 241.07,-15.10 238.68,-14.58 236.29,-14.07 232.82,-13.43 229.35,-12.79 225.17,-11.93 221.00,-11.07 218.52,-11.16 216.04,-11.24 212.80,-11.14 209.56,-11.03 206.61,-10.68 203.66,-10.33 198.49,-9.03 193.31,-7.73 187.24,-5.32 181.18,-2.91 174.82,-1.57 168.46,-0.23 163.00,0.34 157.54,0.92 149.81,1.44 142.08,1.96 132.34,2.33 122.59,2.69 113.19,2.71 103.80,2.72 89.25,2.74 74.70,2.76 60.61,2.79 46.53,2.81 37.72,2.85 28.91,2.88 19.09,2.93 9.27,2.98 4.63,3.05 0,3.12 -0.37,3.07 -0.74,3.03 -1.09,2.90 -1.45,2.76 -1.76,2.55 -2.07,2.33 -2.32,2.05 -2.57,1.77 -2.74,1.44 -2.92,1.10 -3.01,0.74 -3.10,0.37 -3.10,-0.00 -3.10,-0.37 -3.01,-0.74 -2.92,-1.10 -2.74,-1.44 -2.57,-1.77 -2.32,-2.05 -2.07,-2.33 -1.76,-2.55 -1.45,-2.76 -1.09,-2.90 -0.74,-3.03 -0.37,-3.07 0.00,-3.12 0.00,-3.12 L 0,-3.12 Z"></path></g><g transform="translate(667.8080870066099 230.84504246304232) rotate(0 88.71022773094137 -110.42252123152116)" stroke="none"><path fill="#e03131" d="M -3.20,0.29 Q -3.20,0.29 -3.55,-3.63 -3.90,-7.55 -4.79,-10.74 -5.69,-13.92 -7.31,-18.05 -8.94,-22.18 -10.77,-29.22 -12.60,-36.26 -14.03,-41.29 -15.46,-46.31 -17.13,-52.02 -18.80,-57.74 -20.89,-63.29 -22.98,-68.84 -24.26,-73.11 -25.55,-77.39 -27.15,-83.50 -28.76,-89.60 -30.14,-94.28 -31.52,-98.96 -32.49,-103.57 -33.46,-108.18 -34.92,-114.34 -36.38,-120.50 -37.37,-126.06 -38.37,-131.62 -39.14,-136.10 -39.92,-140.58 -40.30,-144.73 -40.69,-148.89 -41.31,-152.29 -41.93,-155.69 -42.68,-158.09 -43.44,-160.49 -43.89,-163.19 -44.34,-165.89 -44.61,-168.11 -44.89,-170.34 -45.18,-175.02 -45.47,-179.71 -45.30,-183.69 -45.13,-187.67 -45.17,-190.78 -45.21,-193.90 -44.99,-198.44 -44.78,-202.97 -44.66,-207.04 -44.55,-211.11 -44.63,-213.80 -44.71,-216.49 -43.13,-219.13 -41.56,-221.77 -37.65,-223.00 -33.74,-224.24 -24.63,-224.30 -15.52,-224.37 -3.20,-224.30 9.11,-224.24 18.32,-223.80 27.54,-223.36 40.12,-221.70 52.70,-220.04 63.69,-218.60 74.68,-217.15 80.73,-216.52 86.79,-215.89 92.51,-215.62 98.24,-215.34 104.95,-215.21 111.65,-215.08 116.30,-215.01 120.94,-214.95 125.62,-214.18 130.29,-213.42 133.55,-213.29 136.80,-213.15 141.51,-213.36 146.23,-213.56 148.77,-213.68 151.32,-213.79 154.80,-214.05 158.28,-214.31 160.57,-214.40 162.86,-214.49 166.90,-213.95 170.93,-213.40 174.77,-212.76 178.61,-212.12 182.35,-212.08 186.08,-212.04 188.72,-211.22 191.36,-210.40 193.76,-209.27 196.15,-208.14 198.97,-206.99 201.78,-205.83 202.91,-203.80 204.05,-201.77 205.45,-199.24 206.85,-196.72 207.12,-192.34 207.39,-187.95 207.83,-182.70 208.27,-177.45 208.48,-173.57 208.70,-169.70 209.30,-163.91 209.90,-158.13 210.45,-152.37 210.99,-146.60 211.26,-142.66 211.54,-138.73 211.54,-133.78 211.55,-128.84 211.52,-124.26 211.48,-119.67 211.66,-116.66 211.85,-113.65 211.93,-110.22 212.01,-106.80 211.96,-102.84 211.91,-98.89 212.23,-94.20 212.55,-89.52 212.83,-86.69 213.11,-83.87 213.32,-80.97 213.54,-78.07 214.25,-75.05 214.96,-72.04 215.88,-69.38 216.80,-66.71 217.84,-64.75 218.88,-62.78 220.44,-58.69 222.01,-54.59 222.36,-50.75 222.71,-46.92 222.83,-43.25 222.96,-39.59 223.25,-35.18 223.54,-30.77 223.93,-26.65 224.31,-22.54 224.19,-21.58 224.07,-20.63 223.65,-19.76 223.23,-18.89 222.55,-18.21 221.87,-17.52 221.01,-17.08 220.15,-16.65 219.20,-16.51 218.25,-16.37 217.30,-16.55 216.35,-16.72 215.51,-17.19 214.66,-17.65 214.02,-18.37 213.37,-19.08 212.98,-19.96 212.59,-20.84 212.50,-21.80 212.42,-22.76 212.64,-23.70 212.87,-24.64 213.38,-25.45 213.89,-26.27 214.64,-26.88 215.38,-27.49 216.29,-27.83 217.19,-28.17 218.15,-28.20 219.11,-28.24 220.04,-27.96 220.96,-27.69 221.75,-27.13 222.54,-26.57 223.11,-25.80 223.67,-25.02 223.96,-24.10 224.25,-23.18 224.24,-22.22 224.22,-21.25 223.89,-20.35 223.57,-19.44 222.97,-18.68 222.37,-17.93 221.56,-17.40 220.76,-16.87 219.82,-16.63 218.89,-16.39 217.93,-16.46 216.97,-16.54 216.08,-16.91 215.19,-17.28 214.47,-17.92 213.75,-18.56 213.26,-19.39 212.78,-20.23 212.59,-21.17 212.41,-22.12 212.41,-22.12 212.41,-22.12 212.26,-25.68 212.11,-29.24 211.68,-34.37 211.25,-39.50 211.29,-43.05 211.33,-46.59 211.25,-49.50 211.17,-52.41 210.33,-55.22 209.49,-58.02 208.24,-60.58 206.99,-63.13 205.87,-66.05 204.76,-68.98 204.04,-73.52 203.33,-78.07 203.54,-80.97 203.76,-83.87 204.03,-86.69 204.31,-89.52 204.63,-94.20 204.95,-98.88 204.89,-102.83 204.83,-106.77 204.89,-110.18 204.95,-113.59 205.08,-116.60 205.22,-119.60 205.08,-124.13 204.93,-128.66 204.67,-133.41 204.42,-138.16 204.08,-141.92 203.74,-145.68 202.83,-151.32 201.93,-156.96 200.81,-162.90 199.68,-168.85 199.20,-172.42 198.71,-175.99 197.50,-181.54 196.28,-187.10 195.70,-190.63 195.13,-194.17 194.88,-196.35 194.64,-198.54 192.41,-199.48 190.17,-200.41 187.81,-201.51 185.46,-202.62 181.47,-203.19 177.49,-203.77 173.79,-204.15 170.10,-204.52 166.48,-204.69 162.85,-204.86 160.55,-204.96 158.26,-205.05 154.75,-205.34 151.25,-205.63 148.66,-205.79 146.07,-205.95 143.31,-206.17 140.55,-206.39 138.39,-206.75 136.23,-207.12 132.83,-207.60 129.42,-208.09 125.15,-208.79 120.88,-209.50 116.22,-209.52 111.57,-209.55 104.78,-209.63 98.00,-209.71 92.12,-209.93 86.24,-210.14 80.09,-210.68 73.94,-211.23 62.93,-212.53 51.93,-213.84 39.62,-215.30 27.31,-216.75 18.24,-216.94 9.17,-217.12 -3.05,-216.85 -15.29,-216.57 -23.67,-216.13 -32.05,-215.69 -34.60,-215.59 -37.16,-215.49 -37.24,-213.30 -37.33,-211.11 -37.21,-207.04 -37.09,-202.97 -36.87,-198.44 -36.65,-193.91 -36.69,-190.80 -36.72,-187.69 -36.53,-183.73 -36.35,-179.77 -36.41,-177.18 -36.47,-174.59 -36.65,-170.60 -36.83,-166.62 -36.79,-164.29 -36.76,-161.96 -36.38,-159.25 -36.00,-156.53 -35.62,-152.93 -35.25,-149.33 -34.98,-145.40 -34.71,-141.48 -33.93,-137.02 -33.16,-132.55 -32.18,-127.14 -31.21,-121.73 -29.73,-115.50 -28.24,-109.28 -27.31,-104.88 -26.37,-100.49 -24.96,-95.74 -23.54,-90.99 -21.93,-84.99 -20.32,-78.98 -19.06,-74.90 -17.80,-70.81 -15.59,-65.09 -13.38,-59.36 -11.63,-53.66 -9.89,-47.96 -8.34,-42.89 -6.79,-37.83 -4.95,-31.21 -3.11,-24.59 -1.15,-20.08 0.80,-15.56 1.64,-11.85 2.47,-8.14 2.83,-4.21 3.20,-0.29 3.18,0.09 3.17,0.48 3.07,0.85 2.96,1.22 2.77,1.56 2.58,1.90 2.32,2.18 2.05,2.46 1.73,2.67 1.40,2.88 1.04,3.01 0.67,3.14 0.28,3.17 -0.09,3.21 -0.48,3.15 -0.86,3.09 -1.22,2.94 -1.57,2.79 -1.89,2.56 -2.20,2.34 -2.45,2.04 -2.69,1.74 -2.86,1.39 -3.03,1.04 -3.11,0.66 -3.20,0.29 -3.20,0.29 L -3.20,0.29 Z"></path></g><g transform="translate(469.29568928702133 420.672522782399) rotate(0 91.19163270243621 -18.610537286211184)" stroke="none"><path fill="#e03131" d="M 1.04,-4.68 Q 1.04,-4.68 4.24,-3.92 7.43,-3.15 9.99,-2.53 12.55,-1.90 14.99,-1.32 17.44,-0.74 21.91,0.29 26.39,1.33 29.06,2.01 31.73,2.70 34.05,2.93 36.37,3.16 39.10,3.29 41.83,3.43 44.78,3.51 47.73,3.60 52.68,3.59 57.63,3.58 62.10,3.90 66.58,4.22 70.26,4.32 73.95,4.42 79.78,4.64 85.62,4.86 90.90,3.64 96.18,2.43 100.60,0.92 105.03,-0.58 111.10,-3.63 117.18,-6.68 126.24,-11.54 135.30,-16.40 141.28,-19.86 147.25,-23.32 153.37,-26.92 159.50,-30.53 163.49,-33.09 167.48,-35.66 170.49,-38.99 173.50,-42.33 176.44,-45.64 179.39,-48.95 179.95,-49.35 180.52,-49.74 181.18,-49.94 181.84,-50.14 182.53,-50.11 183.22,-50.09 183.87,-49.84 184.51,-49.60 185.05,-49.16 185.58,-48.72 185.95,-48.14 186.32,-47.55 186.48,-46.88 186.64,-46.21 186.57,-45.52 186.51,-44.83 186.23,-44.20 185.95,-43.57 185.49,-43.06 185.02,-42.55 184.42,-42.21 183.81,-41.88 183.13,-41.76 182.45,-41.63 181.77,-41.73 181.09,-41.83 180.47,-42.15 179.85,-42.46 179.37,-42.95 178.89,-43.44 178.59,-44.07 178.29,-44.69 178.20,-45.37 178.11,-46.06 178.25,-46.74 178.39,-47.41 178.73,-48.01 179.08,-48.61 179.60,-49.06 180.11,-49.52 180.75,-49.79 181.39,-50.05 182.08,-50.10 182.77,-50.15 183.43,-49.98 184.10,-49.81 184.68,-49.43 185.26,-49.05 185.69,-48.51 186.11,-47.97 186.35,-47.31 186.58,-46.66 186.59,-45.97 186.60,-45.28 186.39,-44.62 186.18,-43.97 185.78,-43.41 185.37,-42.85 185.37,-42.85 185.37,-42.85 181.93,-39.94 178.50,-37.02 176.51,-35.42 174.52,-33.82 172.51,-32.43 170.49,-31.04 166.43,-28.37 162.37,-25.71 156.26,-22.04 150.16,-18.37 144.15,-14.78 138.14,-11.19 129.08,-6.19 120.01,-1.19 113.65,2.17 107.29,5.54 102.59,7.38 97.89,9.22 91.78,10.86 85.67,12.50 79.81,12.72 73.95,12.93 70.26,13.03 66.57,13.13 62.08,13.44 57.60,13.75 52.57,13.67 47.55,13.60 44.47,13.58 41.38,13.55 38.30,13.43 35.21,13.31 32.25,12.94 29.29,12.57 26.24,11.83 23.19,11.10 19.08,9.94 14.98,8.78 12.50,8.09 10.02,7.40 7.71,6.70 5.40,6.00 2.17,5.34 -1.04,4.68 -1.58,4.49 -2.13,4.30 -2.61,3.98 -3.10,3.66 -3.49,3.24 -3.89,2.81 -4.17,2.31 -4.45,1.80 -4.60,1.24 -4.75,0.68 -4.76,0.10 -4.78,-0.46 -4.65,-1.03 -4.53,-1.60 -4.27,-2.11 -4.01,-2.63 -3.64,-3.07 -3.26,-3.52 -2.79,-3.86 -2.32,-4.20 -1.79,-4.41 -1.25,-4.63 -0.68,-4.72 -0.11,-4.80 0.46,-4.74 1.04,-4.68 1.04,-4.68 L 1.04,-4.68 Z"></path></g><g transform="translate(474.258499230011 413.22830786791474) rotate(0 16.749483557590338 -19.230888529085178)" stroke="none"><path fill="#e03131" d="M -3.86,-1.93 Q -3.86,-1.93 -1.52,-6.11 0.81,-10.29 2.47,-13.05 4.12,-15.80 6.79,-19.33 9.46,-22.86 12.11,-25.68 14.76,-28.50 17.80,-30.87 20.84,-33.24 23.44,-35.28 26.05,-37.33 28.46,-39.51 30.86,-41.68 31.45,-42.02 32.03,-42.35 32.69,-42.48 33.35,-42.62 34.02,-42.53 34.69,-42.44 35.29,-42.15 35.90,-41.85 36.38,-41.38 36.86,-40.91 37.16,-40.31 37.46,-39.71 37.56,-39.04 37.65,-38.37 37.53,-37.71 37.41,-37.05 37.08,-36.46 36.76,-35.87 36.26,-35.42 35.76,-34.97 35.14,-34.70 34.53,-34.43 33.86,-34.37 33.19,-34.31 32.53,-34.46 31.88,-34.62 31.31,-34.98 30.74,-35.34 30.31,-35.86 29.89,-36.38 29.65,-37.01 29.41,-37.64 29.39,-38.32 29.37,-38.99 29.56,-39.63 29.75,-40.28 30.14,-40.83 30.53,-41.38 31.08,-41.78 31.62,-42.17 32.26,-42.37 32.90,-42.58 33.58,-42.56 34.25,-42.55 34.88,-42.32 35.52,-42.09 36.04,-41.68 36.57,-41.26 36.94,-40.69 37.31,-40.13 37.47,-39.48 37.64,-38.82 37.59,-38.15 37.54,-37.48 37.28,-36.86 37.02,-36.24 36.57,-35.74 36.12,-35.23 36.12,-35.23 36.12,-35.23 33.40,-33.22 30.68,-31.21 28.02,-29.27 25.36,-27.33 22.72,-25.36 20.09,-23.39 17.78,-21.03 15.48,-18.68 13.20,-15.06 10.92,-11.44 9.33,-9.13 7.74,-6.82 5.80,-2.44 3.86,1.93 3.57,2.36 3.28,2.80 2.90,3.15 2.52,3.50 2.06,3.75 1.61,4.00 1.10,4.14 0.60,4.27 0.08,4.28 -0.43,4.29 -0.94,4.18 -1.45,4.06 -1.91,3.83 -2.38,3.60 -2.77,3.26 -3.17,2.92 -3.48,2.50 -3.78,2.08 -3.97,1.59 -4.17,1.11 -4.24,0.60 -4.31,0.08 -4.26,-0.43 -4.21,-0.95 -4.03,-1.44 -3.86,-1.93 -3.86,-1.93 L -3.86,-1.93 Z"></path></g><g transform="translate(470.53639177276887 423.1539277538941) rotate(0 35.980372086675516 27.91580592931723)" stroke="none"><path fill="#e03131" d="M 3.03,-1.16 Q 3.03,-1.16 4.74,3.49 6.44,8.15 8.80,12.04 11.16,15.93 13.57,18.97 15.99,22.00 18.18,24.25 20.37,26.50 24.89,29.86 29.41,33.22 36.56,36.78 43.71,40.34 48.98,43.00 54.25,45.66 59.59,47.83 64.93,49.99 68.96,51.63 72.98,53.27 73.36,53.50 73.74,53.73 74.03,54.07 74.32,54.41 74.48,54.82 74.65,55.24 74.67,55.68 74.70,56.13 74.58,56.56 74.46,56.99 74.21,57.36 73.96,57.73 73.60,58.00 73.24,58.26 72.82,58.41 72.40,58.55 71.95,58.55 71.51,58.55 71.08,58.40 70.66,58.26 70.31,57.99 69.95,57.72 69.70,57.35 69.45,56.98 69.33,56.55 69.21,56.12 69.24,55.68 69.26,55.23 69.43,54.82 69.59,54.40 69.88,54.06 70.17,53.72 70.56,53.49 70.94,53.26 71.37,53.17 71.81,53.07 72.25,53.12 72.70,53.17 73.10,53.36 73.51,53.55 73.83,53.85 74.15,54.16 74.36,54.56 74.57,54.95 74.64,55.39 74.71,55.83 74.64,56.27 74.57,56.71 74.36,57.10 74.15,57.50 73.82,57.80 73.50,58.11 73.09,58.30 72.69,58.48 72.25,58.53 71.80,58.58 71.37,58.48 70.93,58.39 70.93,58.39 70.93,58.39 66.89,56.80 62.85,55.21 57.27,53.01 51.70,50.81 46.40,48.24 41.09,45.67 33.43,41.95 25.77,38.23 20.63,34.54 15.49,30.85 13.41,28.27 11.33,25.68 8.73,22.36 6.13,19.05 3.41,14.72 0.69,10.39 -1.17,5.77 -3.03,1.16 -3.13,0.78 -3.23,0.40 -3.23,0.01 -3.23,-0.37 -3.14,-0.75 -3.04,-1.14 -2.86,-1.48 -2.68,-1.83 -2.42,-2.13 -2.17,-2.42 -1.84,-2.65 -1.52,-2.87 -1.16,-3.01 -0.79,-3.15 -0.40,-3.20 -0.01,-3.25 0.37,-3.21 0.76,-3.16 1.13,-3.02 1.49,-2.89 1.82,-2.66 2.14,-2.44 2.40,-2.15 2.67,-1.86 2.85,-1.51 3.03,-1.16 3.03,-1.16 L 3.03,-1.16 Z"></path></g><g transform="translate(624.3835000054498 353.67458855203813) rotate(0 17.99018604333787 31.637913386559376)" stroke="none"><path fill="#e03131" d="M 0.89,-4.94 Q 0.89,-4.94 4.80,-3.98 8.71,-3.03 12.05,-1.46 15.40,0.11 17.80,2.02 20.19,3.93 21.83,5.32 23.46,6.72 26.73,9.99 30.01,13.27 32.67,15.91 35.33,18.56 37.48,21.15 39.62,23.75 40.37,26.49 41.12,29.22 39.99,33.13 38.86,37.03 31.88,43.73 24.91,50.42 19.96,54.91 15.02,59.40 13.15,61.64 11.28,63.88 9.87,65.70 8.47,67.51 7.90,67.99 7.33,68.47 6.63,68.75 5.94,69.02 5.19,69.06 4.45,69.10 3.73,68.90 3.01,68.70 2.39,68.28 1.77,67.86 1.32,67.26 0.87,66.66 0.64,65.96 0.40,65.25 0.40,64.50 0.40,63.75 0.64,63.05 0.88,62.34 1.34,61.75 1.79,61.15 2.41,60.73 3.03,60.32 3.75,60.12 4.47,59.92 5.22,59.96 5.96,60.00 6.65,60.28 7.35,60.56 7.92,61.05 8.48,61.53 8.87,62.17 9.25,62.81 9.41,63.54 9.57,64.27 9.49,65.02 9.40,65.76 9.09,66.44 8.77,67.11 8.26,67.65 7.74,68.19 7.08,68.54 6.42,68.89 5.68,69.01 4.95,69.13 4.21,69.01 3.47,68.88 2.81,68.53 2.15,68.18 1.64,67.64 1.13,67.09 0.82,66.41 0.51,65.73 0.43,64.99 0.35,64.25 0.51,63.52 0.67,62.79 1.06,62.15 1.45,61.51 1.45,61.51 1.45,61.51 3.02,59.84 4.59,58.17 6.74,55.70 8.89,53.23 13.41,48.30 17.94,43.38 23.16,38.00 28.39,32.62 28.72,30.33 29.05,28.04 26.74,25.18 24.44,22.31 22.40,19.61 20.37,16.90 18.55,15.40 16.73,13.90 13.98,11.07 11.24,8.23 9.11,7.06 6.98,5.88 3.04,5.41 -0.89,4.94 -1.47,4.76 -2.05,4.58 -2.57,4.27 -3.09,3.95 -3.52,3.53 -3.95,3.10 -4.26,2.58 -4.57,2.06 -4.75,1.49 -4.93,0.91 -4.97,0.30 -5.01,-0.29 -4.90,-0.89 -4.79,-1.48 -4.55,-2.04 -4.30,-2.59 -3.92,-3.07 -3.55,-3.54 -3.08,-3.92 -2.60,-4.29 -2.05,-4.54 -1.50,-4.79 -0.90,-4.90 -0.30,-5.01 0.29,-4.97 0.89,-4.94 0.89,-4.94 L 0.89,-4.94 Z"></path></g><g transform="translate(315.4485810543399 605.5371931587661) rotate(0 -14.268078586095385 31.017562143685836)" stroke="none"><path fill="#e03131" d="M 4.09,0.81 Q 4.09,0.81 3.31,4.39 2.54,7.96 -1.29,15.57 -5.14,23.18 -9.63,31.58 -14.13,39.97 -17.17,45.00 -20.22,50.03 -21.79,53.72 -23.36,57.42 -23.86,58.43 -24.36,59.44 -24.56,59.80 -24.76,60.16 -25.04,60.46 -25.32,60.76 -25.67,60.99 -26.01,61.22 -26.40,61.35 -26.79,61.49 -27.20,61.53 -27.61,61.57 -28.02,61.51 -28.43,61.45 -28.81,61.29 -29.19,61.14 -29.53,60.89 -29.86,60.65 -30.13,60.33 -30.39,60.02 -30.57,59.65 -30.76,59.28 -30.85,58.88 -30.93,58.47 -30.92,58.06 -30.91,57.65 -30.80,57.25 -30.70,56.85 -29.12,52.61 -27.55,48.37 -26.84,46.73 -26.13,45.09 -25.70,44.53 -25.27,43.98 -24.69,43.59 -24.11,43.20 -23.43,43.02 -22.76,42.84 -22.06,42.89 -21.36,42.93 -20.72,43.19 -20.07,43.46 -19.54,43.91 -19.01,44.37 -18.66,44.97 -18.30,45.58 -18.16,46.26 -18.01,46.94 -18.09,47.64 -18.17,48.33 -18.47,48.97 -18.77,49.60 -19.26,50.10 -19.74,50.60 -20.36,50.93 -20.98,51.25 -21.67,51.36 -22.36,51.46 -23.05,51.34 -23.74,51.22 -24.36,50.89 -24.97,50.56 -25.45,50.05 -25.93,49.54 -26.21,48.90 -26.50,48.26 -26.57,47.57 -26.64,46.87 -26.48,46.19 -26.33,45.51 -25.96,44.91 -25.60,44.32 -25.06,43.87 -24.52,43.42 -23.87,43.17 -23.22,42.91 -22.52,42.88 -21.82,42.85 -21.15,43.04 -20.48,43.24 -19.90,43.63 -19.33,44.03 -18.91,44.59 -18.49,45.15 -18.27,45.82 -18.06,46.48 -18.06,47.18 -18.07,47.88 -18.30,48.54 -18.53,49.20 -18.53,49.20 -18.53,49.20 -20.63,52.28 -22.74,55.37 -23.55,57.40 -24.36,59.44 -24.56,59.80 -24.76,60.16 -25.04,60.46 -25.32,60.76 -25.67,60.99 -26.01,61.22 -26.40,61.35 -26.79,61.49 -27.20,61.53 -27.61,61.57 -28.02,61.51 -28.43,61.45 -28.81,61.29 -29.19,61.14 -29.53,60.89 -29.86,60.65 -30.13,60.33 -30.39,60.02 -30.57,59.65 -30.76,59.28 -30.85,58.88 -30.93,58.47 -30.92,58.06 -30.91,57.65 -30.80,57.25 -30.70,56.85 -29.84,55.97 -28.98,55.08 -27.36,50.95 -25.73,46.83 -22.95,41.84 -20.16,36.86 -15.96,28.41 -11.76,19.97 -8.58,13.13 -5.39,6.30 -4.74,2.74 -4.09,-0.81 -3.93,-1.29 -3.77,-1.77 -3.50,-2.20 -3.24,-2.62 -2.88,-2.97 -2.52,-3.32 -2.08,-3.57 -1.65,-3.83 -1.16,-3.97 -0.68,-4.11 -0.18,-4.13 0.31,-4.16 0.81,-4.06 1.30,-3.96 1.76,-3.74 2.21,-3.53 2.60,-3.21 2.99,-2.90 3.30,-2.50 3.60,-2.10 3.80,-1.63 4.00,-1.17 4.08,-0.68 4.16,-0.18 4.13,0.31 4.09,0.81 4.09,0.81 L 4.09,0.81 Z"></path></g><g transform="translate(311.72647359709777 624.1477304449777) rotate(0 1.8610537286210729 16.749483557590338)" stroke="none"><path fill="#e03131" d="M 4.89,-1.83 Q 4.89,-1.83 5.91,1.04 6.93,3.91 7.55,6.13 8.17,8.36 8.43,11.36 8.69,14.37 8.83,16.64 8.96,18.91 9.15,22.39 9.33,25.87 9.44,29.68 9.56,33.48 9.41,34.41 9.26,35.35 8.82,36.18 8.38,37.02 7.69,37.67 7.01,38.32 6.15,38.72 5.29,39.12 4.35,39.22 3.41,39.33 2.49,39.13 1.57,38.92 0.76,38.44 -0.04,37.95 -0.66,37.24 -1.27,36.52 -1.62,35.64 -1.97,34.76 -2.03,33.82 -2.08,32.88 -1.83,31.96 -1.58,31.05 -1.05,30.27 -0.52,29.49 0.22,28.91 0.97,28.34 1.86,28.04 2.76,27.73 3.70,27.73 4.65,27.73 5.55,28.03 6.44,28.33 7.19,28.90 7.95,29.47 8.48,30.25 9.01,31.03 9.27,31.94 9.52,32.85 9.47,33.79 9.42,34.74 9.08,35.62 8.73,36.49 8.12,37.22 7.51,37.94 6.70,38.43 5.89,38.92 4.97,39.12 4.05,39.33 3.11,39.23 2.17,39.12 1.31,38.73 0.45,38.34 -0.23,37.69 -0.92,37.04 -1.36,36.20 -1.80,35.37 -1.96,34.44 -2.11,33.51 -2.11,33.51 -2.11,33.51 -2.06,31.54 -2.01,29.58 -1.93,26.04 -1.84,22.50 -1.83,18.83 -1.82,15.15 -2.23,11.32 -2.65,7.49 -3.77,4.66 -4.89,1.83 -5.03,1.22 -5.18,0.61 -5.18,-0.01 -5.18,-0.64 -5.02,-1.25 -4.87,-1.87 -4.58,-2.42 -4.28,-2.98 -3.86,-3.45 -3.44,-3.92 -2.92,-4.27 -2.40,-4.63 -1.82,-4.85 -1.23,-5.07 -0.60,-5.14 0.01,-5.22 0.64,-5.14 1.26,-5.06 1.85,-4.84 2.44,-4.61 2.96,-4.25 3.47,-3.89 3.89,-3.42 4.30,-2.95 4.59,-2.39 4.89,-1.83 4.89,-1.83 L 4.89,-1.83 Z"></path></g><g transform="translate(301.8008537111184 645.239672702684) rotate(0 8.684917400231825 -2.4814049714948396)" stroke="none"><path fill="#e03131" d="M -0.38,-4.56 Q -0.38,-4.56 3.92,-4.66 8.22,-4.76 10.57,-4.95 12.93,-5.14 14.35,-6.84 15.77,-8.54 16.41,-8.90 17.06,-9.26 17.79,-9.39 18.52,-9.53 19.25,-9.42 19.98,-9.32 20.64,-8.98 21.30,-8.65 21.82,-8.12 22.34,-7.60 22.66,-6.93 22.99,-6.27 23.08,-5.53 23.17,-4.80 23.03,-4.07 22.89,-3.35 22.52,-2.71 22.15,-2.07 21.59,-1.58 21.04,-1.09 20.36,-0.80 19.68,-0.51 18.94,-0.46 18.20,-0.40 17.48,-0.59 16.77,-0.77 16.15,-1.17 15.53,-1.58 15.07,-2.16 14.61,-2.74 14.36,-3.43 14.11,-4.13 14.09,-4.87 14.08,-5.61 14.30,-6.31 14.53,-7.02 14.96,-7.62 15.40,-8.22 16.00,-8.64 16.61,-9.07 17.31,-9.28 18.02,-9.49 18.76,-9.47 19.50,-9.44 20.19,-9.18 20.89,-8.92 21.46,-8.45 22.03,-7.98 22.43,-7.36 22.82,-6.73 22.99,-6.01 23.17,-5.29 23.10,-4.56 23.03,-3.82 22.74,-3.14 22.44,-2.47 21.94,-1.92 21.44,-1.37 21.44,-1.37 21.44,-1.37 17.88,0.86 14.31,3.11 11.60,3.22 8.89,3.33 4.63,3.94 0.38,4.56 -0.17,4.53 -0.72,4.51 -1.25,4.36 -1.78,4.21 -2.26,3.94 -2.73,3.66 -3.13,3.28 -3.53,2.90 -3.83,2.43 -4.12,1.97 -4.30,1.44 -4.48,0.92 -4.52,0.37 -4.57,-0.17 -4.48,-0.71 -4.39,-1.26 -4.18,-1.77 -3.96,-2.27 -3.63,-2.72 -3.30,-3.16 -2.88,-3.51 -2.45,-3.86 -1.95,-4.09 -1.46,-4.33 -0.91,-4.44 -0.37,-4.56 -0.37,-4.56 L -0.38,-4.56 Z"></path></g><g transform="translate(343.9847382265309 637.7954577881997) rotate(0 19.85123977195883 8.064566157358058)" stroke="none"><path fill="#e03131" d="M 4.97,0.76 Q 4.97,0.76 3.95,5.35 2.93,9.94 2.71,12.54 2.49,15.15 2.52,18.54 2.56,21.94 2.46,22.53 2.35,23.12 2.10,23.67 1.86,24.22 1.49,24.69 1.12,25.16 0.65,25.53 0.18,25.91 -0.36,26.15 -0.90,26.40 -1.49,26.51 -2.08,26.62 -2.68,26.58 -3.28,26.55 -3.86,26.37 -4.43,26.19 -4.94,25.89 -5.46,25.58 -5.88,25.15 -6.31,24.73 -6.62,24.22 -6.93,23.70 -7.11,23.13 -7.29,22.56 -7.33,21.96 -7.36,21.36 -7.00,18.77 -6.64,16.17 -6.16,14.07 -5.69,11.98 -4.08,9.33 -2.47,6.68 0.64,4.47 3.76,2.27 7.55,1.32 11.35,0.37 13.82,1.06 16.30,1.74 18.34,3.94 20.38,6.14 21.34,9.78 22.29,13.41 21.97,17.12 21.66,20.83 21.54,21.74 21.43,22.65 21.14,23.39 20.85,24.12 20.39,24.76 19.94,25.41 19.34,25.92 18.74,26.44 18.04,26.80 17.33,27.15 16.56,27.33 15.79,27.51 15.01,27.50 14.22,27.49 13.45,27.29 12.69,27.09 11.99,26.71 11.30,26.34 10.72,25.81 10.13,25.28 9.69,24.62 9.25,23.96 8.98,23.22 8.71,22.48 8.63,21.70 8.54,20.91 8.65,20.13 8.76,19.35 9.49,16.64 10.22,13.93 10.91,11.84 11.60,9.76 12.81,7.37 14.01,4.98 15.30,2.18 16.58,-0.61 19.67,-3.32 22.75,-6.03 25.74,-7.87 28.74,-9.71 30.50,-11.08 32.27,-12.45 37.47,-11.70 42.67,-10.94 44.18,-7.53 45.69,-4.12 46.32,-1.31 46.94,1.50 47.40,5.47 47.86,9.44 48.06,13.32 48.25,17.20 47.85,19.88 47.44,22.55 47.24,24.66 47.05,26.76 46.77,27.72 46.50,28.68 45.93,29.50 45.37,30.32 44.57,30.91 43.77,31.51 42.83,31.82 41.88,32.13 40.89,32.12 39.89,32.11 38.95,31.79 38.01,31.46 37.23,30.85 36.44,30.24 35.89,29.41 35.33,28.59 35.08,27.63 34.82,26.66 34.88,25.67 34.94,24.68 35.32,23.76 35.69,22.84 36.34,22.08 37.00,21.33 37.85,20.82 38.71,20.32 39.68,20.11 40.66,19.91 41.64,20.02 42.63,20.14 43.53,20.56 44.43,20.99 45.15,21.68 45.87,22.37 46.32,23.25 46.78,24.13 46.94,25.12 47.09,26.10 46.92,27.08 46.75,28.06 46.28,28.94 45.80,29.81 45.08,30.49 44.35,31.17 43.44,31.58 42.53,31.99 41.54,32.09 40.55,32.19 39.58,31.97 38.61,31.74 37.77,31.22 36.92,30.70 36.28,29.94 35.64,29.18 35.28,28.25 34.92,27.32 34.87,26.33 34.83,25.33 34.83,25.33 34.83,25.33 35.46,21.28 36.08,17.22 36.13,14.71 36.18,12.19 36.17,9.51 36.16,6.84 35.65,3.38 35.13,-0.06 34.25,-2.84 33.36,-5.62 36.28,-4.32 39.20,-3.03 37.30,-1.45 35.39,0.11 33.09,1.86 30.79,3.60 29.12,5.08 27.46,6.56 26.35,8.61 25.24,10.66 23.86,14.14 22.48,17.62 21.95,20.14 21.43,22.65 21.14,23.38 20.85,24.12 20.39,24.76 19.94,25.41 19.34,25.92 18.74,26.44 18.04,26.80 17.33,27.15 16.56,27.33 15.80,27.51 15.01,27.50 14.22,27.49 13.45,27.29 12.69,27.09 11.99,26.71 11.30,26.34 10.72,25.81 10.13,25.28 9.69,24.62 9.25,23.96 8.98,23.22 8.71,22.48 8.63,21.70 8.54,20.91 8.65,20.13 8.75,19.35 9.19,18.09 9.62,16.84 10.92,14.64 12.23,12.45 9.87,13.05 7.51,13.65 5.62,15.35 3.74,17.05 3.15,19.50 2.56,21.94 2.46,22.53 2.35,23.12 2.10,23.67 1.86,24.22 1.49,24.69 1.12,25.16 0.65,25.53 0.18,25.91 -0.36,26.15 -0.90,26.40 -1.49,26.51 -2.08,26.62 -2.68,26.58 -3.28,26.55 -3.85,26.37 -4.43,26.19 -4.94,25.89 -5.46,25.58 -5.88,25.15 -6.31,24.73 -6.62,24.22 -6.93,23.70 -7.11,23.13 -7.29,22.56 -7.33,21.96 -7.36,21.36 -7.20,20.07 -7.04,18.78 -6.79,16.45 -6.55,14.13 -6.17,11.36 -5.78,8.60 -5.38,3.91 -4.97,-0.76 -4.81,-1.34 -4.64,-1.93 -4.34,-2.46 -4.04,-2.98 -3.63,-3.43 -3.21,-3.87 -2.70,-4.20 -2.19,-4.52 -1.62,-4.72 -1.04,-4.92 -0.44,-4.97 0.16,-5.03 0.75,-4.93 1.35,-4.84 1.91,-4.61 2.47,-4.37 2.96,-4.01 3.45,-3.65 3.84,-3.19 4.23,-2.72 4.49,-2.17 4.76,-1.63 4.88,-1.04 5.01,-0.44 4.99,0.15 4.97,0.76 4.97,0.76 L 4.97,0.76 Z"></path></g><g transform="translate(404.77916002815505 646.4803751884315) rotate(0 4.3424587001159125 10.545971128853125)" stroke="none"><path fill="#e03131" d="M 4.63,-1.73 Q 4.63,-1.73 5.68,1.13 6.73,4.01 7.22,7.87 7.72,11.73 9.38,14.48 11.04,17.23 11.21,17.82 11.38,18.41 11.40,19.02 11.42,19.64 11.30,20.24 11.18,20.84 10.91,21.39 10.65,21.95 10.26,22.42 9.87,22.90 9.38,23.27 8.88,23.64 8.32,23.88 7.75,24.12 7.15,24.21 6.54,24.31 5.93,24.26 5.31,24.21 4.73,24.01 4.15,23.82 3.63,23.49 3.11,23.16 2.69,22.72 2.26,22.27 1.95,21.74 1.65,21.21 2.40,17.82 3.16,14.43 3.26,11.22 3.36,8.02 3.61,7.19 3.85,6.36 4.35,5.65 4.84,4.94 5.54,4.42 6.24,3.91 7.06,3.65 7.89,3.38 8.76,3.39 9.62,3.41 10.44,3.69 11.26,3.98 11.94,4.52 12.62,5.05 13.10,5.78 13.58,6.50 13.79,7.34 14.01,8.18 13.95,9.04 13.90,9.91 13.56,10.71 13.23,11.51 12.66,12.16 12.09,12.81 11.34,13.25 10.59,13.69 9.74,13.86 8.89,14.03 8.03,13.93 7.17,13.82 6.39,13.45 5.61,13.07 4.99,12.46 4.37,11.86 3.97,11.09 3.58,10.32 3.45,9.46 3.32,8.60 3.48,7.75 3.63,6.89 4.05,6.13 4.46,5.37 5.10,4.79 5.74,4.20 6.53,3.85 7.32,3.50 8.19,3.42 9.05,3.33 9.89,3.53 10.74,3.73 11.47,4.19 12.21,4.65 12.76,5.32 13.31,5.99 13.62,6.80 13.93,7.61 13.96,8.47 14.00,9.34 14.00,9.34 14.00,9.34 13.71,11.04 13.42,12.74 12.23,14.98 11.04,17.23 11.21,17.82 11.38,18.41 11.40,19.02 11.42,19.63 11.30,20.24 11.18,20.84 10.91,21.39 10.65,21.95 10.26,22.42 9.87,22.90 9.38,23.27 8.88,23.64 8.32,23.88 7.75,24.12 7.15,24.21 6.54,24.31 5.93,24.26 5.31,24.21 4.73,24.01 4.15,23.82 3.63,23.49 3.11,23.16 2.69,22.72 2.26,22.27 1.95,21.74 1.65,21.21 1.00,19.90 0.36,18.60 -0.63,15.84 -1.62,13.09 -2.03,10.24 -2.45,7.40 -3.54,4.56 -4.63,1.73 -4.77,1.15 -4.91,0.57 -4.91,-0.01 -4.91,-0.61 -4.77,-1.19 -4.62,-1.77 -4.34,-2.30 -4.06,-2.82 -3.66,-3.27 -3.27,-3.72 -2.77,-4.05 -2.28,-4.39 -1.72,-4.60 -1.16,-4.81 -0.57,-4.88 0.01,-4.95 0.61,-4.87 1.20,-4.80 1.76,-4.59 2.31,-4.37 2.80,-4.03 3.29,-3.69 3.69,-3.24 4.08,-2.79 4.36,-2.26 4.63,-1.73 4.63,-1.73 L 4.63,-1.73 Z"></path></g><g transform="translate(406.01986251390235 612.9814080732508) rotate(0 0.00004999999998744897 0.00005000000010113581)" stroke="none"><path fill="#e03131" d="M 3.14,-3.14 Q 3.14,-3.14 3.55,-2.55 3.97,-1.97 4.18,-1.28 4.40,-0.59 4.38,0.11 4.36,0.83 4.11,1.51 3.86,2.18 3.41,2.74 2.96,3.30 2.36,3.69 1.75,4.08 1.05,4.25 0.36,4.42 -0.35,4.36 -1.07,4.31 -1.73,4.02 -2.39,3.74 -2.92,3.26 -3.46,2.78 -3.81,2.15 -4.16,1.53 -4.30,0.82 -4.43,0.11 -4.34,-0.59 -4.24,-1.30 -3.92,-1.94 -3.60,-2.59 -3.09,-3.09 -2.59,-3.60 -1.94,-3.92 -1.30,-4.24 -0.59,-4.34 0.12,-4.43 0.82,-4.30 1.53,-4.16 2.15,-3.81 2.78,-3.46 3.26,-2.92 3.74,-2.39 4.02,-1.73 4.31,-1.07 4.36,-0.35 4.42,0.36 4.25,1.05 4.07,1.75 3.69,2.36 3.30,2.96 2.74,3.41 2.18,3.86 1.51,4.11 0.83,4.36 0.11,4.38 -0.60,4.40 -1.28,4.18 -1.97,3.97 -2.55,3.55 -3.14,3.13 -3.14,3.14 -3.14,3.14 -3.47,2.71 -3.80,2.29 -4.02,1.80 -4.24,1.32 -4.33,0.79 -4.43,0.26 -4.40,-0.26 -4.36,-0.80 -4.20,-1.31 -4.04,-1.82 -3.77,-2.28 -3.49,-2.73 -3.11,-3.11 -2.73,-3.49 -2.28,-3.77 -1.82,-4.05 -1.31,-4.20 -0.80,-4.36 -0.26,-4.40 0.26,-4.43 0.79,-4.33 1.32,-4.24 1.80,-4.02 2.29,-3.80 2.71,-3.47 3.14,-3.14 3.14,-3.14 L 3.14,-3.14 Z"></path></g><g transform="translate(458.12936691529444 636.5547553024521) rotate(0 -12.407024857474312 52.729855644265854)" stroke="none"><path fill="#e03131" d="M 2.36,4.38 Q 2.36,4.38 -2.41,6.61 -7.19,8.83 -9.57,10.73 -11.96,12.62 -13.66,15.23 -15.35,17.84 -15.52,20.03 -15.68,22.21 -12.46,21.89 -9.23,21.56 -5.35,21.60 -1.46,21.65 0.73,20.96 2.93,20.28 4.07,18.45 5.22,16.61 5.07,13.80 4.93,10.99 4.89,8.65 4.85,6.31 4.95,5.56 5.06,4.80 5.34,4.10 5.62,3.39 6.07,2.78 6.51,2.16 7.09,1.67 7.66,1.18 8.34,0.84 9.02,0.50 9.76,0.33 10.50,0.16 11.26,0.17 12.02,0.19 12.75,0.38 13.49,0.58 14.15,0.94 14.82,1.31 15.38,1.82 15.93,2.34 16.35,2.97 16.77,3.60 17.03,4.32 17.28,5.03 17.36,5.78 17.44,6.54 15.51,10.60 13.57,14.66 11.01,23.01 8.45,31.37 5.28,38.91 2.10,46.46 -1.80,56.28 -5.70,66.11 -9.23,74.92 -12.75,83.72 -15.05,88.59 -17.35,93.46 -18.96,96.71 -20.57,99.96 -21.94,102.29 -23.32,104.62 -27.38,106.81 -31.43,109.00 -34.19,107.79 -36.94,106.59 -38.34,104.25 -39.74,101.92 -40.21,99.30 -40.68,96.67 -40.78,93.69 -40.89,90.70 -39.66,87.40 -38.43,84.10 -34.81,80.59 -31.19,77.09 -26.12,72.66 -21.04,68.24 -17.75,65.65 -14.47,63.06 -10.21,59.57 -5.95,56.08 -4.01,53.86 -2.07,51.63 -0.16,50.21 1.75,48.80 3.33,47.47 4.91,46.15 5.53,45.84 6.15,45.53 6.83,45.43 7.52,45.33 8.21,45.45 8.89,45.58 9.50,45.92 10.10,46.25 10.57,46.77 11.04,47.28 11.32,47.92 11.60,48.55 11.66,49.25 11.72,49.94 11.56,50.61 11.40,51.29 11.03,51.88 10.66,52.47 10.12,52.91 9.58,53.35 8.93,53.59 8.28,53.84 7.59,53.86 6.89,53.88 6.23,53.69 5.56,53.49 4.99,53.09 4.42,52.68 4.02,52.12 3.61,51.56 3.40,50.90 3.19,50.24 3.20,49.54 3.21,48.85 3.45,48.19 3.68,47.54 4.11,46.99 4.55,46.45 5.13,46.07 5.71,45.69 6.38,45.52 7.06,45.34 7.75,45.40 8.44,45.45 9.08,45.72 9.73,45.99 10.25,46.45 10.77,46.91 11.11,47.51 11.46,48.11 11.60,48.79 11.73,49.47 11.64,50.16 11.56,50.85 11.25,51.48 10.95,52.10 10.46,52.60 9.97,53.09 9.97,53.09 9.97,53.09 6.59,54.92 3.21,56.75 0.88,59.02 -1.43,61.30 -5.53,65.04 -9.62,68.79 -12.57,71.46 -15.51,74.13 -20.07,78.75 -24.62,83.36 -27.69,87.09 -30.76,90.83 -30.66,93.15 -30.56,95.48 -30.08,97.86 -29.60,100.25 -28.17,98.50 -26.74,96.75 -25.10,93.75 -23.47,90.75 -21.50,85.95 -19.52,81.16 -16.34,72.25 -13.16,63.34 -9.70,53.32 -6.24,43.30 -3.82,36.03 -1.39,28.76 1.72,17.53 4.85,6.31 4.95,5.56 5.06,4.80 5.34,4.10 5.62,3.39 6.07,2.78 6.51,2.16 7.09,1.67 7.66,1.18 8.34,0.84 9.02,0.50 9.76,0.33 10.50,0.16 11.26,0.17 12.02,0.19 12.75,0.38 13.48,0.58 14.15,0.94 14.82,1.31 15.37,1.82 15.93,2.34 16.35,2.97 16.77,3.60 17.03,4.31 17.28,5.03 17.36,5.78 17.44,6.54 17.32,9.16 17.20,11.79 16.85,14.65 16.50,17.52 14.68,21.56 12.87,25.60 10.90,27.80 8.92,30.01 3.68,31.44 -1.55,32.87 -5.69,32.77 -9.84,32.66 -12.23,32.51 -14.62,32.35 -18.73,31.50 -22.83,30.65 -24.39,28.38 -25.96,26.10 -25.96,23.48 -25.97,20.87 -24.93,17.22 -23.88,13.57 -20.60,9.73 -17.31,5.88 -14.33,3.51 -11.35,1.15 -6.85,-1.61 -2.36,-4.38 -1.80,-4.60 -1.24,-4.82 -0.64,-4.90 -0.05,-4.97 0.54,-4.91 1.14,-4.84 1.70,-4.64 2.26,-4.43 2.76,-4.09 3.26,-3.76 3.66,-3.31 4.06,-2.87 4.35,-2.34 4.63,-1.81 4.78,-1.23 4.93,-0.65 4.94,-0.05 4.94,0.54 4.81,1.13 4.67,1.71 4.40,2.25 4.12,2.78 3.73,3.23 3.34,3.69 2.85,4.03 2.36,4.38 2.36,4.38 L 2.36,4.38 Z"></path></g><g transform="translate(496.5911439734648 641.5175652454418) rotate(0 -1.8610537286211866 17.990186043337644)" stroke="none"><path d="M0.37 0.73 C0.47 0.43, 0.57 -2.52, -0.49 -2.67 C-1.55 -2.83, -4.94 -3.01, -6 -0.2 C-7.07 2.62, -5.88 9.57, -6.88 14.21 C-7.88 18.84, -11.1 24.75, -12.01 27.62 C-12.91 30.49, -12.83 29.76, -12.3 31.43 C-11.76 33.1, -10.9 36.4, -8.8 37.62 C-6.7 38.85, -1.56 39.14, 0.32 38.76 C2.19 38.38, 1.33 36.79, 2.47 35.36 C3.61 33.93, 6.51 32.09, 7.15 30.17 C7.8 28.24, 6.18 25.95, 6.33 23.8 C6.48 21.66, 7.58 20.27, 8.07 17.29 C8.55 14.31, 9.89 8.16, 9.23 5.92 C8.57 3.67, 5.46 4.57, 4.11 3.83 C2.77 3.09, 1.89 2.25, 1.18 1.49 C0.46 0.74, -0.17 -0.42, -0.19 -0.71" stroke="none" stroke-width="0" fill="#ffffff" fill-rule="evenodd"></path><path fill="#e03131" d="M 4.19,2.29 Q 4.19,2.29 1.81,6.07 -0.57,9.86 -2.64,14.44 -4.72,19.03 -5.86,22.14 -7.01,25.26 -6.70,28.08 -6.39,30.89 -3.89,31.35 -1.38,31.81 -0.62,29.41 0.14,27.02 1.00,22.81 1.86,18.60 2.13,15.63 2.41,12.66 0.32,9.55 -1.76,6.43 -2.78,5.81 -3.80,5.20 -4.53,4.46 -5.27,3.71 -5.72,2.78 -6.18,1.84 -6.31,0.80 -6.44,-0.22 -6.24,-1.25 -6.03,-2.27 -5.51,-3.17 -4.99,-4.08 -4.21,-4.77 -3.42,-5.46 -2.46,-5.86 -1.50,-6.27 -0.46,-6.34 0.57,-6.42 1.58,-6.16 2.59,-5.90 3.47,-5.33 4.34,-4.76 4.99,-3.94 5.64,-3.12 5.99,-2.14 6.34,-1.16 6.36,-0.11 6.38,0.92 6.06,1.92 5.75,2.91 5.13,3.75 4.52,4.60 3.66,5.20 2.81,5.80 1.81,6.10 0.81,6.39 -0.22,6.36 -1.26,6.32 -2.24,5.95 -3.22,5.58 -4.03,4.92 -4.83,4.26 -5.39,3.38 -5.94,2.49 -6.19,1.48 -6.43,0.46 -6.34,-0.57 -6.24,-1.61 -5.82,-2.56 -5.40,-3.52 -4.70,-4.29 -3.99,-5.06 -3.08,-5.56 -2.17,-6.07 -1.14,-6.26 -0.11,-6.44 0.91,-6.30 1.94,-6.15 2.87,-5.67 3.80,-5.20 3.80,-5.20 3.80,-5.20 5.78,-3.30 7.76,-1.39 9.98,0.47 12.19,2.35 13.38,4.80 14.58,7.25 14.56,10.36 14.54,13.46 14.35,15.97 14.17,18.49 13.11,21.97 12.05,25.45 11.74,27.99 11.42,30.52 9.75,33.39 8.07,36.26 6.43,38.05 4.78,39.84 1.41,41.07 -1.95,42.30 -4.87,41.58 -7.79,40.86 -10.10,39.39 -12.40,37.92 -13.66,35.68 -14.92,33.44 -15.31,30.76 -15.71,28.07 -14.98,25.29 -14.26,22.51 -13.00,19.34 -11.75,16.17 -9.87,11.00 -7.98,5.82 -6.09,1.76 -4.19,-2.29 -3.86,-2.75 -3.52,-3.22 -3.09,-3.60 -2.65,-3.98 -2.13,-4.23 -1.62,-4.49 -1.06,-4.62 -0.50,-4.75 0.07,-4.74 0.65,-4.73 1.21,-4.59 1.76,-4.44 2.27,-4.16 2.78,-3.89 3.20,-3.50 3.63,-3.11 3.95,-2.63 4.27,-2.15 4.46,-1.61 4.66,-1.06 4.72,-0.49 4.78,0.07 4.70,0.64 4.62,1.21 4.41,1.75 4.19,2.29 4.19,2.29 L 4.19,2.29 Z"></path></g><g transform="translate(533.8122185458876 639.0361602739467) rotate(0 -13.647727343221732 21.712293500580017)" stroke="none"><path fill="#e03131" d="M 4.70,0.42 Q 4.70,0.42 4.16,4.33 3.61,8.24 3.49,11.24 3.37,14.25 3.26,17.63 3.16,21.01 4.07,23.58 4.98,26.15 5.49,28.76 6.01,31.36 4.29,34.84 2.57,38.31 -0.83,40.82 -4.24,43.33 -7.24,44.76 -10.24,46.19 -12.86,46.92 -15.48,47.65 -19.70,48.16 -23.92,48.67 -26.14,48.81 -28.36,48.95 -29.25,48.83 -30.14,48.72 -30.94,48.32 -31.74,47.93 -32.38,47.30 -33.01,46.66 -33.41,45.86 -33.81,45.06 -33.94,44.18 -34.06,43.29 -33.90,42.41 -33.73,41.53 -33.29,40.75 -32.86,39.97 -32.19,39.37 -31.53,38.77 -30.71,38.41 -29.89,38.05 -28.99,37.98 -28.10,37.90 -27.23,38.12 -26.36,38.33 -25.61,38.81 -24.85,39.29 -24.29,39.98 -23.72,40.68 -23.41,41.52 -23.10,42.36 -23.07,43.25 -23.05,44.15 -23.31,45.00 -23.57,45.86 -24.08,46.59 -24.60,47.32 -25.33,47.84 -26.05,48.37 -26.91,48.63 -27.76,48.90 -28.66,48.88 -29.55,48.86 -30.40,48.55 -31.24,48.25 -31.94,47.69 -32.64,47.13 -33.12,46.38 -33.61,45.62 -33.83,44.76 -34.04,43.89 -33.98,43.00 -33.91,42.10 -33.55,41.28 -33.20,40.46 -32.61,39.79 -32.01,39.12 -31.24,38.68 -30.46,38.23 -29.58,38.06 -28.70,37.89 -28.70,37.89 -28.70,37.89 -24.65,37.87 -20.60,37.86 -17.48,37.50 -14.36,37.13 -12.19,36.18 -10.01,35.23 -6.97,33.02 -3.92,30.81 -4.45,28.41 -4.98,26.01 -5.21,23.44 -5.45,20.87 -5.42,17.34 -5.40,13.82 -5.22,10.63 -5.04,7.45 -4.87,3.51 -4.70,-0.42 -4.58,-0.98 -4.46,-1.54 -4.21,-2.05 -3.96,-2.56 -3.60,-3.00 -3.23,-3.44 -2.77,-3.77 -2.32,-4.11 -1.79,-4.33 -1.26,-4.55 -0.70,-4.63 -0.14,-4.72 0.42,-4.67 0.99,-4.61 1.53,-4.43 2.06,-4.24 2.54,-3.93 3.02,-3.62 3.41,-3.21 3.80,-2.79 4.08,-2.30 4.36,-1.80 4.51,-1.25 4.67,-0.71 4.68,-0.14 4.70,0.42 4.70,0.42 L 4.70,0.42 Z"></path></g></svg>